<?xml version="1.0" encoding="utf-8"?>
<!-- Generator: Adobe Illustrator 24.3.0, SVG Export Plug-In . SVG Version: 6.00 Build 0)  -->
<svg version="1.1" id="Capa_1" xmlns="http://www.w3.org/2000/svg" xmlns:xlink="http://www.w3.org/1999/xlink" x="0px" y="0px"
	 viewBox="0 0 831.3 252.3" style="enable-background:new 0 0 831.3 252.3;" xml:space="preserve">
<style type="text/css">
	.st0{fill:#3090C0;}
	.st1{fill:#287AA4;}
	.st2{fill:#E3E0E4;}
	.st3{fill:#F7F7F7;}
</style>
<g>
	<path class="st0" d="M796.6,241.7h-762c-15,0-27.1-4.3-27.1-9.6V19.7c0-5.3,12.1-9.6,27.1-9.6h762.1c15,0,27.1,4.3,27.1,9.6v212.4
		C823.8,237.4,811.6,241.7,796.6,241.7L796.6,241.7z"/>
</g>
<g>
	<path class="st1" d="M810.2,10.1h-24.6c7.5,0,13.6,4.3,13.6,9.6v212.4c0,5.3-6.1,9.6-13.6,9.6h24.6c7.5,0,13.6-4.3,13.6-9.6V19.7
		C823.8,14.4,817.7,10.1,810.2,10.1z"/>
</g>
<g>
	<path class="st2" d="M591.4,206.4H243.2c-5.5,0-10-4.5-10-10v-34c0-5.5,4.5-10,10-10h348.1c5.5,0,10,4.5,10,10v34
		C601.3,202,596.9,206.4,591.4,206.4z"/>
</g>
<g>
	<path class="st1" d="M415.6,152.5H243.2c-5.5,0-10,4.5-10,10v34c0,5.5,4.5,10,10,10h172.4L415.6,152.5L415.6,152.5z"/>
</g>
<path class="st3" d="M317.2,76.1c-4-1.7-7.1-3.1-7.1-5.5c0-1.8,1.7-3.7,6.5-3.7c3.3,0,5.1,0.9,6.6,1.7c1,0.5,1.9,1,3,1
	c3.4,0,4.9-4.1,4.9-6.3c0-6.4-12.1-6.7-14.5-6.7c-8.5,0-18.5,3.9-18.5,15.1c0,9.9,7.8,13.5,14.1,16.5c4.4,2,8.1,3.8,8.1,7
	c0,3-3.4,4.1-6.3,4.1c-3.6,0-5.8-1.7-7.7-3.1c-1.4-1.1-2.7-2.1-4.2-2.1c-3.1,0-5.3,3.8-5.3,6.4c0,5.1,8.2,9.7,17.5,9.7
	c11.2,0,18.1-6.2,18.1-16.1C332.4,82.8,323.6,78.9,317.2,76.1L317.2,76.1z"/>
<path class="st3" d="M380.4,57H350c-2.6,0-3.8,2.7-3.8,5.4c0,3.2,1.6,5.5,3.8,5.5h9.2v37.6c0,2.7,3.1,3.9,6,3.9s6-1.2,6-3.9V67.9
	h9.2c2.2,0,3.8-2.3,3.8-5.5C384.2,59.7,383,57,380.4,57z"/>
<path class="st3" d="M420.8,60.6c-0.8-2.4-3.8-4-7.7-4c-3.9,0-6.9,1.6-7.7,4l-13.1,42.9c-0.1,0.3-0.2,0.6-0.2,0.9c0,3.1,4.5,5,7.5,5
	c2.8,0,3.8-1.3,4.1-2.4l2.3-8.4h14l2.3,8.4c0.3,1.1,1.3,2.4,4.1,2.4c3.1,0,7.5-2,7.5-5c0-0.3-0.1-0.6-0.2-0.9L420.8,60.6z
	 M417.6,89.1h-8.9l4.5-16.4L417.6,89.1z"/>
<path class="st3" d="M477.8,87.1c5.4-2.3,8.3-7.4,8.3-14.5c0-10.3-6-15.6-17.8-15.6h-14.5c-2.2,0-3.9,1.6-3.9,3.8v44.7
	c0,2.7,3.1,3.9,6,3.9s6-1.2,6-3.9V89.1h3.8l9.5,18.4c0.8,1.5,2.2,2.3,4,2.3c3.6,0,7.4-3.2,7.4-6.2c0-0.3-0.1-1-0.4-1.5L477.8,87.1z
	 M474.1,73.6c0,4.2-1.7,6-5.8,6h-6.4v-12h6.4C472.3,67.6,474.1,69.4,474.1,73.6z"/>
<path class="st3" d="M533.9,57h-30.4c-2.6,0-3.8,2.7-3.8,5.4c0,3.2,1.6,5.5,3.8,5.5h9.2v37.6c0,2.7,3.1,3.9,6,3.9s6-1.2,6-3.9V67.9
	h9.2c2.2,0,3.8-2.3,3.8-5.5C537.7,59.7,536.5,57,533.9,57L533.9,57z"/>
</svg>
