<?xml version="1.0" encoding="utf-8"?>
<!-- Generator: Adobe Illustrator 24.3.0, SVG Export Plug-In . SVG Version: 6.00 Build 0)  -->
<svg version="1.1" id="Capa_1" xmlns="http://www.w3.org/2000/svg" xmlns:xlink="http://www.w3.org/1999/xlink" x="0px" y="0px"
	 viewBox="0 0 656.4 252.3" style="enable-background:new 0 0 656.4 252.3;" xml:space="preserve">
<style type="text/css">
	.st0{fill:#3090C0;}
	.st1{fill:#287AA4;}
	.st2{fill:#F7F7F7;}
	.st3{fill:#E3E0E4;}
</style>
<g>
	<path class="st0" d="M628.1,241.7H28.8c-11.8,0-21.3-4.3-21.3-9.6V19.7c0-5.3,9.5-9.6,21.3-9.6h599.4c11.8,0,21.3,4.3,21.3,9.6
		v212.4C649.5,237.4,639.9,241.7,628.1,241.7L628.1,241.7z"/>
</g>
<g>
	<path class="st1" d="M638.8,10.1h-19.3c5.9,0,10.7,4.3,10.7,9.6v212.4c0,5.3-4.8,9.6-10.7,9.6h19.3c5.9,0,10.7-4.3,10.7-9.6V19.7
		C649.5,14.4,644.7,10.1,638.8,10.1z"/>
</g>
<g>
	<path class="st2" d="M88,105.6c-0.8-2.4-3.8-4-7.7-4c-3.9,0-6.9,1.6-7.7,4l-13.1,42.9c-0.1,0.3-0.2,0.6-0.2,0.9c0,3.1,4.5,5,7.5,5
		c2.8,0,3.8-1.3,4.1-2.4l2.3-8.4h14l2.3,8.4c0.3,1.1,1.3,2.4,4.1,2.4c3.1,0,7.5-2,7.5-5c0-0.3-0.1-0.6-0.2-0.9L88,105.6z
		 M84.8,134.1h-8.9l4.5-16.4L84.8,134.1z"/>
	<path class="st2" d="M366,132.3c5.4-2.3,8.3-7.4,8.3-14.5c0-10.3-6-15.6-17.8-15.6H342c-2.2,0-3.9,1.6-3.9,3.8v44.7
		c0,2.7,3.1,3.9,6,3.9s6-1.2,6-3.9v-16.4C349.5,134.6,361.7,134.4,366,132.3C367.1,131.8,366,132.3,366,132.3z M362.3,118.8
		c0,4.2-1.7,6-5.8,6h-6.4v-12h6.4C360.5,112.8,362.3,114.6,362.3,118.8z"/>
	<path class="st2" d="M281,101.6c-4.2,0-6.1,0.5-9.1,5.9l-7,12.3l-7-12.3c-3-5.4-4.9-5.9-9.1-5.9c-2.9,0-6.1,1.6-6.1,6.1v43.6
		c0,2.7,3.1,3.9,6.1,3.9c2.9,0,6.1-1.2,6.1-3.9v-26l6,11c0.8,1.6,2.2,2.3,3.9,2.3c1.3,0,3-0.4,4.2-2.3l6.1-10.4v25.4
		c0,2.7,3.1,3.9,6.1,3.9s6.1-1.2,6.1-3.9v-43.6C287,103.3,283.9,101.6,281,101.6z"/>
	<path class="st2" d="M321.2,105.6c-0.8-2.4-3.8-4-7.7-4c-3.9,0-6.9,1.6-7.7,4l-13.1,42.9c-0.1,0.3-0.2,0.6-0.2,0.9
		c0,3.1,4.5,5,7.5,5c2.8,0,3.8-1.3,4.1-2.4l2.3-8.4h14l2.3,8.4c0.3,1.1,1.3,2.4,4.1,2.4c3.1,0,7.5-2,7.5-5c0-0.3-0.1-0.6-0.2-0.9
		L321.2,105.6z M318,134.1h-8.9l4.5-16.4L318,134.1z"/>
	<path class="st2" d="M133.9,155.2c18.1,0,18.1-19.1,18.1-26.2c0-10.3,0-26.2-17.8-26.2h-14.5c-2.2,0-3.9,1.6-3.9,3.8v44.7
		c0,2.7,3.1,3.9,6,3.9 M140,126.7c0,17.4,0,17.4-5.8,17.4h-6.4v-30.7h6.4C140,113.4,140,113.7,140,126.7z"/>
	<path class="st2" d="M181.7,154.2c18.1,0,18.1-19.1,18.1-26.2c0-10.3,0-26.2-17.8-26.2h-14.5c-2.2,0-3.9,1.6-3.9,3.8v44.7
		c0,2.7,3.1,3.9,6,3.9 M187.8,125.7c0,17.4,0,17.4-5.8,17.4h-6.4v-30.7h6.4C187.8,112.4,187.8,112.7,187.8,125.7z"/>
</g>
<g>
	<g>
		<g>
			<path class="st3" d="M506,52.5c-40.5,0-73.4,32.9-73.4,73.4s32.9,73.4,73.4,73.4s73.4-32.9,73.4-73.4S546.5,52.5,506,52.5z
				 M506,187.9c-34.2,0-62-27.8-62-62s27.8-62,62-62s62,27.8,62,62S540.2,187.9,506,187.9z"/>
		</g>
	</g>
	<g>
		<g>
			<path class="st3" d="M534.4,119.7h-22.7V97c0-3.1-2.6-5.7-5.7-5.7s-5.7,2.6-5.7,5.7v22.7h-22.7c-3.2,0-5.7,2.6-5.7,5.7
				s2.6,5.7,5.7,5.7h22.7v22.7c0,3.1,2.6,5.7,5.7,5.7c3.2,0,5.7-2.6,5.7-5.7v-22.7h22.7c3.2,0,5.7-2.6,5.7-5.7
				S537.6,119.7,534.4,119.7z"/>
		</g>
	</g>
</g>
</svg>
