<?xml version="1.0" encoding="utf-8"?>
<!-- Generator: Adobe Illustrator 24.3.0, SVG Export Plug-In . SVG Version: 6.00 Build 0)  -->
<svg version="1.1"
	 id="svg58" inkscape:version="1.0 (4035a4fb49, 2020-05-01)" sodipodi:docname="circus.svg" xmlns:cc="http://creativecommons.org/ns#" xmlns:dc="http://purl.org/dc/elements/1.1/" xmlns:inkscape="http://www.inkscape.org/namespaces/inkscape" xmlns:rdf="http://www.w3.org/1999/02/22-rdf-syntax-ns#" xmlns:sodipodi="http://sodipodi.sourceforge.net/DTD/sodipodi-0.dtd" xmlns:svg="http://www.w3.org/2000/svg"
	 xmlns="http://www.w3.org/2000/svg" xmlns:xlink="http://www.w3.org/1999/xlink" x="0px" y="0px" viewBox="0 0 100 58"
	 style="enable-background:new 0 0 100 58;" xml:space="preserve">
<style type="text/css">
	.st0{fill:#BB8D5D;}
	.st1{fill:#9E7758;}
	.st2{fill:#8BB54A;}
	.st3{fill:#D7EFFF;}
	.st4{fill:#CC291F;}
	.st5{fill:#E5E5E5;}
	.st6{fill:#FFCC00;}
	.st7{fill:#2D3134;}
	.st8{opacity:0.2;enable-background:new    ;}
	.st9{opacity:0.1;enable-background:new    ;}
	.st10{fill:#6D4D42;}
	.st11{fill:#61443B;}
	.st12{fill:#EEEEEC;}
	.st13{fill:#D4D3D3;}
	.st14{fill:#117D66;}
	.st15{fill:#44C2A7;}
	.st16{fill:#1F967E;}
	.st17{fill:#E95552;}
	.st18{fill:#424342;}
	.st19{fill:#D34D49;}
	.st20{fill:#3A3B3A;}
	.st21{fill:#CCDCEA;}
	.st22{fill:#FFFFFF;}
	.st23{fill:#825012;}
	.st24{fill:#B9E1FF;}
</style>
<g id="g2920" transform="matrix(0.99986411,0,0,1.0086057,-49.21255,-260.41354)">
	<g id="g2914" transform="translate(0.76334)">
		<path id="path546-3" class="st0" d="M98.5,308.2v7.5l-50-25v-7.5L98.5,308.2z"/>
		<path id="path548-6" class="st1" d="M98.5,315.7v-7.5l50-25v7.5L98.5,315.7z"/>
	</g>
	<path id="path208" class="st2" d="M49.2,283.2l50-25l50,25l-50,25L49.2,283.2z"/>
</g>
<polygon class="st3" points="0,25.2 50,0 100,25.2 50,50.4 "/>
<sodipodi:namedview  bordercolor="#666666" borderopacity="1" fit-margin-bottom="0" fit-margin-left="0" fit-margin-right="0" fit-margin-top="0" gridtolerance="10" guidetolerance="10" id="namedview60" inkscape:current-layer="svg58" inkscape:cx="63.425257" inkscape:cy="31.028875" inkscape:document-rotation="0" inkscape:pageopacity="0" inkscape:pageshadow="2" inkscape:window-height="1025" inkscape:window-maximized="1" inkscape:window-width="1920" inkscape:window-x="0" inkscape:window-y="28" inkscape:zoom="8.9375002" objecttolerance="10" pagecolor="#ffffff" showgrid="false" units="px">
	</sodipodi:namedview>
<path id="path2" class="st4" d="M50.1,14.6c-10.8,0-19.5,2.4-19.5,5.4v10.8c0,3,8.7,5.4,19.5,5.4s19.5-2.4,19.5-5.4V20
	C69.6,17,60.9,14.6,50.1,14.6z"/>
<path id="path4" class="st5" d="M47.7,25.4c-1.7-0.1-3.4-0.2-4.9-0.3v10.8c1.5,0.2,3.2,0.3,4.9,0.3V25.4z"/>
<path id="path6" class="st5" d="M66.6,22.9c-1.2,0.5-2.6,0.9-4.3,1.3V35c1.6-0.4,3.1-0.8,4.3-1.3V22.9z"/>
<path id="path8" class="st5" d="M33.6,22.9c1.2,0.5,2.6,0.9,4.3,1.3V35c-1.6-0.4-3.1-0.8-4.3-1.3V22.9z"/>
<path id="path10" class="st5" d="M57.4,25c-1.5,0.2-3.2,0.3-4.9,0.3v10.8c1.7-0.1,3.4-0.2,4.9-0.3V25z"/>
<path id="path12" class="st6" d="M62.2,35.1c-0.9-0.7-3.8-4.9-4.8-7.8c-1,3.3-4.9,8.9-4.9,8.9C56.2,36.1,59.4,35.7,62.2,35.1z"/>
<path id="path14" class="st7" d="M62.2,35.1c-1.7,0-4.1-2.4-4.8-6.7c-0.4,7-4.8,7.8-4.9,7.8C56.2,36.1,59.4,35.7,62.2,35.1z"/>
<path id="path16" class="st8" d="M50.1,25.4c-10.8,0-19.5-2.4-19.5-5.4v10.8c0,3,8.7,5.4,19.5,5.4s19.5-2.4,19.5-5.4V20
	C69.6,23,60.9,25.4,50.1,25.4z"/>
<path id="path18" class="st8" d="M66.6,23.2c-1.2,0.5-2.6,0.9-4.3,1.3c-1.5,0.3-3.1,0.6-4.9,0.8c-1.5,0.2-3.2,0.3-4.9,0.3
	c-0.8,0.1-1.6,0.1-2.4,0.1s-1.6,0-2.4,0c-1.7-0.1-3.4-0.2-4.9-0.3c-1.8-0.2-3.4-0.5-4.9-0.8c-1.6-0.4-3.1-0.8-4.3-1.3
	c-2-0.8-3.1-1.8-3.1-2.9v2c0,0.5,0.2,0.9,0.6,1.4c0.6,0.6,2.4,0.4,2.4-0.3v0.9c0,0.7,0.6,1.3,1.6,1.6c0.1,0,0.1,0,0.1,0
	c1.1,0.3,2.5-0.1,2.5-0.8v0.5c0,0.6,0.7,1.1,1.7,1.3h0.1c1.5,0.3,3.1-0.4,3.1-1.3v0.6c0,0.7,0.9,1.3,2.1,1.3h0.1
	c1.5,0.1,2.7-0.5,2.7-1.3v0.1c0,0.7,1.1,1.4,2.4,1.4c1.3,0,0,0,0,0c1.3,0,2.4-0.6,2.4-1.4v-0.2c0,0.8,1.3,1.5,2.7,1.3h0.1
	c1.2-0.1,2.1-0.6,2.1-1.3v-0.6c0,0.9,1.6,1.6,3.1,1.3h0.1c1-0.2,1.7-0.7,1.7-1.3v-0.5c0,0.7,1.4,1.2,2.5,0.8c0.1,0,0.1,0,0.1,0
	c1-0.3,1.6-0.9,1.6-1.6v-0.9c0,0.7,1.8,1,2.4,0.3c0.4-0.4,0.6-0.9,0.6-1.4v-2C69.6,21.4,68.5,22.4,66.6,23.2L66.6,23.2z"/>
<path id="path20" class="st4" d="M67.3,17.4L50.1,9.1l-17.2,8.3c-1.5,0.7-2.3,1.6-2.3,2.5c0,3,8.7,5.4,19.5,5.4S69.6,23,69.6,20
	C69.6,19.1,68.8,18.2,67.3,17.4z"/>
<path id="path22" class="st5" d="M66.6,22.9V23c0,0.7,1.8,1,2.4,0.3c0.4-0.4,0.6-0.9,0.6-1.4v-2C69.6,21.1,68.5,22.1,66.6,22.9z"/>
<path id="path24" class="st5" d="M57.4,25v0.3c0,0.9,1.6,1.6,3.1,1.3h0.1c1-0.2,1.7-0.7,1.7-1.3v-1.1C60.8,24.6,59.2,24.8,57.4,25z"
	/>
<path id="path26" class="st5" d="M50.1,25.4c-0.9,0-1.6,0-2.4,0v0.7c0,0.7,1.1,1.4,2.4,1.4c1.3,0,0,0,0,0c1.3,0,2.4-0.6,2.4-1.4
	v-0.7C51.8,25.4,51,25.4,50.1,25.4z"/>
<path id="path28" class="st4" d="M42.8,25v0.9c0,0.7,0.9,1.3,2.1,1.3H45c1.5,0.1,2.7-0.5,2.7-1.3v-0.5C46,25.3,44.3,25.2,42.8,25z"
	/>
<path id="path30" class="st4" d="M62.3,24.2v0.5c0,0.7,1.4,1.2,2.5,0.8c0.1,0,0.1,0,0.1,0c1-0.3,1.6-0.9,1.6-1.6v-1
	C65.4,23.4,64,23.8,62.3,24.2z"/>
<path id="path32" class="st5" d="M33.6,22.9V23c0,0.7-1.8,1-2.4,0.3c-0.4-0.4-0.6-0.9-0.6-1.4v-2C30.6,21.1,31.7,22.1,33.6,22.9z"/>
<path id="path34" class="st5" d="M42.8,25v0.3c0,0.9-1.6,1.6-3.1,1.3h-0.1c-1-0.2-1.7-0.7-1.7-1.3v-1.1C39.4,24.6,41,24.8,42.8,25z"
	/>
<path id="path36" class="st4" d="M37.9,24.2v0.5c0,0.7-1.4,1.2-2.5,0.8c-0.1,0-0.1,0-0.1,0c-1-0.3-1.6-0.9-1.6-1.6v-1
	C34.8,23.4,36.3,23.8,37.9,24.2z"/>
<path id="path38" class="st4" d="M52.6,25.4v0.5c0,0.8,1.3,1.5,2.7,1.3h0.1c1.2-0.1,2.1-0.6,2.1-1.3V25
	C55.9,25.2,54.3,25.3,52.6,25.4L52.6,25.4z"/>
<path id="path40" class="st9" d="M66.6,22.9c-1.2,0.5-2.6,0.9-4.3,1.3c-1.5,0.3-3.1,0.6-4.9,0.8c-1.5,0.2-3.2,0.3-4.9,0.3
	c-0.8,0.1-1.6,0.1-2.4,0.1s-1.6,0-2.4,0c-1.7-0.1-3.4-0.2-4.9-0.3c-1.8-0.2-3.4-0.5-4.9-0.8c-1.6-0.4-3.1-0.8-4.3-1.3
	c-2-0.8-3.1-1.8-3.1-2.9v2c0,0.5,0.2,0.9,0.6,1.4c0.6,0.6,2.4,0.4,2.4-0.3v0.9c0,0.7,0.6,1.3,1.6,1.6c0.1,0,0.1,0,0.1,0
	c1.1,0.3,2.5-0.1,2.5-0.8v0.5c0,0.6,0.7,1.1,1.7,1.3h0.1c1.5,0.3,3.1-0.4,3.1-1.3V26c0,0.7,0.9,1.3,2.1,1.3h0.1
	c1.5,0.1,2.7-0.5,2.7-1.3v0.1c0,0.7,1.1,1.4,2.4,1.4c1.3,0,0,0,0,0c1.3,0,2.4-0.6,2.4-1.4v-0.2c0,0.8,1.3,1.5,2.7,1.3h0.1
	c1.2-0.1,2.1-0.6,2.1-1.3v-0.6c0,0.9,1.6,1.6,3.1,1.3h0.1c1-0.2,1.7-0.7,1.7-1.3v-0.5c0,0.7,1.4,1.2,2.5,0.8c0.1,0,0.1,0,0.1,0
	c1-0.3,1.6-0.9,1.6-1.6v-1c0,0.7,1.8,1,2.4,0.3c0.4-0.4,0.6-0.9,0.6-1.4v-2C69.6,21.1,68.5,22.1,66.6,22.9L66.6,22.9z"/>
<g id="g52" transform="matrix(0.64933734,0,0,0.44272467,29.152935,0.40430858)">
	<path id="path42" class="st5" d="M57.6,50.8c3-1.9,4.7-4.1,4.7-6.6l-30-24.5L57.6,50.8z"/>
	<path id="path44" class="st5" d="M43.6,55.6c2.7-0.5,5.3-1.1,7.5-1.8L32.3,19.7L43.6,55.6z"/>
	<path id="path46" class="st5" d="M13.5,53.8c2.3,0.8,4.8,1.4,7.5,1.8l11.3-35.8L13.5,53.8z"/>
	<path id="path48" class="st5" d="M6.9,50.8l25.4-31.1L2.2,44.2C2.2,46.7,3.9,48.9,6.9,50.8z"/>
	<path id="path50" class="st5" d="M28.5,56.4c1.2,0.1,2.4,0.1,3.8,0.1c1.3,0,2.5,0,3.8-0.1l-3.8-36.7L28.5,56.4z"/>
</g>
<g>
	<g>
		<path class="st10" d="M53,34L53,34l0.1-0.1c0.1,0,0.1-0.1,0-0.2c0-0.1-0.1-0.1-0.2,0l-0.2,0.1v-0.2c0-0.1,0-0.1-0.1-0.1
			s-0.1,0-0.1,0.1V34l-0.9,0.7c-0.1,0-0.1,0.1,0,0.2h0.1c0,0,0,0,0.1,0l0.9-0.7l0.4,0.1l0,0c0.1,0,0.1,0,0.1-0.1
			C53.1,34.1,53.1,34,53,34z"/>
		<path class="st10" d="M48.4,34.7L47.5,34v-0.4c0-0.1-0.1-0.1-0.1-0.1c-0.1,0-0.1,0.1-0.1,0.1v0.2l-0.2-0.1c-0.1,0-0.1,0-0.2,0
			c0,0.1,0,0.1,0,0.2l0.2,0.1H47c-0.1,0-0.1,0.1-0.1,0.1c0,0.1,0.1,0.1,0.1,0.1l0,0l0.4-0.1L48.4,34.7
			C48.3,34.8,48.3,34.8,48.4,34.7L48.4,34.7C48.5,34.8,48.5,34.7,48.4,34.7z"/>
	</g>
	<g>
		<path class="st11" d="M52.2,34.2l-0.6,0.5c-0.1,0-0.1,0.1,0,0.2h0.1c0,0,0,0,0.1,0l0.6-0.4C52.3,34.4,52.2,34.3,52.2,34.2z"/>
		<path class="st11" d="M48.4,34.7l-0.6-0.5c0,0.1-0.1,0.1-0.1,0.2l0.6,0.4c0,0,0,0,0.1,0h0.1C48.5,34.8,48.5,34.7,48.4,34.7z"/>
	</g>
	<circle class="st12" cx="50" cy="35.4" r="2"/>
	<path class="st13" d="M48.7,35.4c0-1,0.7-1.8,1.6-2c-0.1,0-0.3,0-0.4,0c-1.1,0-2,0.9-2,2s0.9,2,2,2c0.1,0,0.3,0,0.4,0
		C49.5,37.2,48.7,36.4,48.7,35.4z"/>
	<path class="st14" d="M48.2,34l0.5-0.5l0.6,0.6l-0.5,0.5c-0.1,0.1-0.1,0.1-0.2,0l-0.4-0.4C48.1,34.1,48.1,34,48.2,34z"/>
	<path class="st15" d="M51.2,32.7c0.5,0.4,0.5,1.6-1.2,1.6s-1.6-1.2-1.2-1.6H51.2z"/>
	<path class="st16" d="M49.3,32.7h-0.5c-0.5,0.4-0.5,1.6,1.2,1.6c0.1,0,0.2,0,0.2,0C48.7,34.3,48.8,33.1,49.3,32.7z"/>
	<circle class="st12" cx="50" cy="32.4" r="1.3"/>
	<path class="st13" d="M49.1,32.4c0-0.6,0.5-1.2,1.1-1.2c-0.1,0-0.1,0-0.2,0c-0.7,0-1.3,0.6-1.3,1.3c0,0.7,0.6,1.3,1.3,1.3
		c0.1,0,0.1,0,0.2,0C49.5,33.5,49.1,33,49.1,32.4z"/>
	<g>
		<circle class="st17" cx="50" cy="34.9" r="0.2"/>
		<circle class="st17" cx="50" cy="35.7" r="0.2"/>
		<circle class="st17" cx="50" cy="36.5" r="0.2"/>
		<circle class="st17" cx="50" cy="32.4" r="0.3"/>
	</g>
	<g>
		<path class="st18" d="M50,33.2c-0.2,0-0.4-0.1-0.5-0.2c0-0.1,0-0.1,0-0.2c0.1,0,0.1,0,0.2,0c0.1,0.1,0.2,0.1,0.3,0.1
			s0.2,0,0.3-0.1c0-0.1,0.1-0.1,0.2,0c0.1,0,0.1,0.1,0,0.2C50.4,33.1,50.2,33.2,50,33.2z"/>
		<circle class="st18" cx="49.4" cy="32.1" r="0.2"/>
		<circle class="st18" cx="50.6" cy="32.1" r="0.2"/>
	</g>
	<polygon class="st17" points="50,30.3 49,30.6 49.1,31.1 50,31.4 50.8,31.1 50.9,30.6 	"/>
	<polygon class="st19" points="50.2,31.3 49.6,31.1 49.5,30.5 49,30.6 49.1,31.1 49.1,31.1 49.7,31.3 50,31.4 	"/>
	<g>
		<rect x="48.4" y="31.1" class="st18" width="3.1" height="0.5"/>
		<polygon class="st18" points="51,29.8 50.9,30.6 49,30.6 48.9,29.8 		"/>
	</g>
	<polygon class="st20" points="49.5,30.6 49.4,29.8 48.9,29.8 49,30.6 	"/>
</g>
<path class="st21" d="M50.1,9.1l-11.8,5.7c0,0,0.8,2.1,3,1.7c2.2-0.5,1.4-0.1,2.4,0.6s1.2,0.5,2.8,0c1.5-0.5,1.3,0.3,2.3,0
	s1.3-1.3,2.5-0.2c1.3,1.1,1.6,1,2.3-0.3s2.8,0.2,2.8,0.2s0.9,0.9,1.6-1.2c0.2-0.6,1-0.3,1.5-0.4c1.4-0.3,1.5-0.9,1.5-0.9L50.1,9.1z"
	/>
<path class="st22" d="M49.5,4"/>
<path class="st22" d="M50.1,7.9l-11.8,5.7c0,0,0.8,2.1,3,1.7c2.2-0.5,1.4-0.1,2.4,0.6s1.2,0.5,2.8,0c1.5-0.5,1.3,0.3,2.3,0
	s1.3-1.3,2.5-0.2c1.3,1.1,1.6,1,2.3-0.3s2.8,0.2,2.8,0.2s0.9,0.9,1.6-1.2c0.2-0.6,1-0.3,1.5-0.4c1.4-0.3,1.5-0.9,1.5-0.9L50.1,7.9z"
	/>
<path id="path54" class="st23" d="M50.1,9.8c-0.4,0-0.6-0.1-0.6-0.3V4.1c0-0.2,0.2-0.3,0.6-0.3s0.6,0.1,0.6,0.3v5.4
	C50.7,9.7,50.5,9.8,50.1,9.8z"/>
<path id="path56" class="st6" d="M50.1,4.4v2.7l9.8,2.7l-2.4-2l2.4-0.7L50.1,4.4z"/>
<path class="st21" d="M50.1,3.7c0.3,0,0.6,0.1,0.6,0.3c0,0.2-0.3,0.3-0.6,0.3S49.5,4.1,49.5,4C49.5,3.8,49.8,3.7,50.1,3.7z"/>
<path class="st22" d="M50.1,3.6c0.3,0,0.6,0.1,0.6,0.3s-0.3,0.3-0.6,0.3S49.5,4,49.5,3.9C49.5,3.7,49.8,3.6,50.1,3.6z"/>
<path class="st24" d="M100,25.2c-1,3.7-2.5,5.1-3.8,5.8c-1.8,0.9-2.8,0-5,1c-2.6,1.2-2.2,2.9-4.7,4.3c-2.8,1.6-4.3-0.2-7.3,1.4
	c-2.3,1.2-1.8,2.4-4.3,3.7c-2.7,1.4-3.5,0.2-6.1,1.5c-2.6,1.4-2.3,2.9-4.8,3.8c-1.5,0.6-2.1,0.2-3.2,0.3c0,0-0.5,0.1-1.3,0.3
	c-2.3,0.8-5,5.9-7.1,5.8c-0.6,0-1.5-0.5-2.5-2.8C66.7,42,83.4,33.6,100,25.2z"/>
<path class="st22" d="M0,25.2c1,3.7,2.5,5.1,3.8,5.8c1.8,0.9,2.8,0,5,1c2.6,1.2,2.2,2.9,4.7,4.3c2.8,1.6,4.3-0.2,7.3,1.4
	c2.3,1.2,1.8,2.4,4.3,3.7c2.7,1.4,3.5,0.2,6.1,1.5c2.6,1.4,2.3,2.9,4.8,3.8c0.5,0.2,0.8,0.3,1.2,0.3c1,0.1,1.6,0,2,0
	c0.7,0,1.4,0.3,3.2,1.8c3.2,2.7,3.6,4.1,4.8,4.1c0.6,0,1.6-0.4,2.8-2.5C33.4,42,16.7,33.6,0,25.2z"/>
</svg>
