<?xml version="1.0" encoding="utf-8"?>
<!-- Generator: Adobe Illustrator 24.3.0, SVG Export Plug-In . SVG Version: 6.00 Build 0)  -->
<svg version="1.1"
	 id="svg3019" inkscape:version="1.0 (4035a4fb49, 2020-05-01)" sodipodi:docname="empty.svg" xmlns:cc="http://creativecommons.org/ns#" xmlns:dc="http://purl.org/dc/elements/1.1/" xmlns:inkscape="http://www.inkscape.org/namespaces/inkscape" xmlns:rdf="http://www.w3.org/1999/02/22-rdf-syntax-ns#" xmlns:sodipodi="http://sodipodi.sourceforge.net/DTD/sodipodi-0.dtd" xmlns:svg="http://www.w3.org/2000/svg"
	 xmlns="http://www.w3.org/2000/svg" xmlns:xlink="http://www.w3.org/1999/xlink" x="0px" y="0px" viewBox="0 0 100 58"
	 style="enable-background:new 0 0 100 58;" xml:space="preserve">
<style type="text/css">
	.st0{fill:#BB8D5D;}
	.st1{fill:#9E7758;}
	.st2{fill:#8BB54A;}
	.st3{fill:#AED3D2;}
	.st4{fill:#D7EFFF;}
	.st5{fill:#FFFFFF;}
	.st6{fill:#B9E1FF;}
</style>
<g id="layer1" transform="translate(-50.567649,-61.93607)" inkscape:groupmode="layer" inkscape:label="Calque 1">
	<g id="g2920" transform="matrix(0.26454738,0,0,0.26686026,37.545283,-6.9646861)">
		<g id="g2914" transform="translate(0.76334)">
			<path id="path546-3" class="st0" d="M237.5,447.2v28.3L48.5,381v-28.3L237.5,447.2z"/>
			<path id="path548-6" class="st1" d="M237.5,475.5v-28.3l189-94.5V381L237.5,475.5z"/>
		</g>
		<path id="path208" class="st2" d="M49.3,352.7l189-94.5l189,94.5l-189,94.5L49.3,352.7z"/>
	</g>
</g>
<polygon class="st3" points="0,25.2 50,0 100,25.2 50,50.4 "/>
<polygon class="st4" points="0,25.2 50,0 100,25.2 50,50.4 "/>
<sodipodi:namedview  bordercolor="#666666" borderopacity="1.0" fit-margin-bottom="0" fit-margin-left="0" fit-margin-right="0" fit-margin-top="0" id="base" inkscape:current-layer="layer1" inkscape:cx="51.657169" inkscape:cy="22.311319" inkscape:document-rotation="0" inkscape:document-units="mm" inkscape:pageopacity="0.0" inkscape:pageshadow="2" inkscape:window-height="1025" inkscape:window-maximized="1" inkscape:window-width="1920" inkscape:window-x="0" inkscape:window-y="28" inkscape:zoom="11.313709" pagecolor="#ffffff" showgrid="false" units="px">
	</sodipodi:namedview>
<path class="st5" d="M50,53.7"/>
<g>
	<path class="st5" d="M0.1,25.2c0.2,0.8,0.5,1.5,0.7,2.1c0.9,2.2,2.1,3.2,3.1,3.7c1.8,0.9,2.8,0,5,1c2.6,1.2,2.2,2.9,4.7,4.3
		c2.8,1.6,4.3-0.2,7.3,1.4c2.3,1.2,1.8,2.4,4.3,3.7c2.7,1.4,3.5,0.2,6.1,1.5c2.6,1.4,2.3,2.9,4.8,3.8c0.5,0.2,0.8,0.3,1.2,0.3
		c1,0.1,1.6,0,2,0c0.7,0,1.4,0.3,3.2,1.8c1.2,1,1.1,1.6,1.6,3c0.6,1.7,5.9,3,5.9,1.9c0-0.1,0-2.6,0-3.2C50,50.4,14.2,32.3,0.1,25.2z
		"/>
	<path class="st6" d="M50,50.4c0,0.7,0,3.1,0,3.2c0,1.1,5.3-0.2,5.9-1.9c0.5-1.4,0.4-2,1.6-3c1.8-1.5,2.5-1.8,3.2-1.8
		c0.4,0,1,0.1,2,0c0.4,0,0.7-0.1,1.2-0.3c2.5-0.9,2.2-2.4,4.8-3.8c2.6-1.3,3.4-0.1,6.1-1.5c2.5-1.3,2-2.5,4.3-3.7
		c3-1.6,4.5,0.2,7.3-1.4c2.5-1.4,2.1-3.1,4.7-4.3c2.2-1,3.2-0.1,5-1c1-0.5,2.2-1.5,3.1-3.7c0.3-0.6,0.5-1.3,0.7-2.1
		C85.8,32.3,50,50.4,50,50.4z"/>
</g>
</svg>
