<?xml version="1.0" encoding="utf-8"?>
<!-- Generator: Adobe Illustrator 24.3.0, SVG Export Plug-In . SVG Version: 6.00 Build 0)  -->
<svg version="1.1" id="Capa_1" xmlns="http://www.w3.org/2000/svg" xmlns:xlink="http://www.w3.org/1999/xlink" x="0px" y="0px"
	 viewBox="0 0 348.1 248.9" style="enable-background:new 0 0 348.1 248.9;" xml:space="preserve">
<style type="text/css">
	.st0{fill:#3090C0;}
	.st1{fill:#287AA4;}
	.st2{fill:#F7F7F7;}
</style>
<g>
	<g>
		<path class="st0" d="M315.2,244.9H33.6c-15.5,0-28.1-12.6-28.1-28.1V32.1C5.5,16.6,18.1,4,33.6,4h281.6
			c15.5,0,28.1,12.6,28.1,28.1v184.6C343.4,232.3,330.8,244.9,315.2,244.9L315.2,244.9z"/>
	</g>
</g>
<g>
	<g>
		<path class="st1" d="M315.2,3.9h-30.9c15.5,0,28.1,12.6,28.1,28.1v184.6c0,15.5-12.6,28.1-28.1,28.1h30.9
			c15.5,0,28.1-12.6,28.1-28.1V32.1C343.4,16.5,330.8,3.9,315.2,3.9L315.2,3.9z"/>
	</g>
</g>
<g>
	<path class="st2" d="M74.8,112.8c13.5,0,21-7.2,21-20.2v-8.7c0-2.3-1.5-4.6-4.4-4.6h-14c-2.8,0-4.4,2.8-4.4,5.5s1.5,5.5,4.4,5.5
		h4.4v2.3c0,5.1-2.4,7.8-7,7.8s-6.9-2.6-6.9-7.8V70.5c0-5.2,2.3-7.8,7-7.8c6.7,0,6.8,4.2,6.9,7c0.1,2,1.3,4.4,7,4.4
		c4.3,0,7-1.1,7-6.7c0-10.4-8.4-17.1-21.4-17.1s-20.5,7.3-20.5,20.2v22.1C53.9,105.7,61.3,112.8,74.8,112.8L74.8,112.8z"/>
	<path class="st2" d="M126.6,109.5l2.7-10h16.8l2.7,10c0.4,1.3,1.5,2.8,4.7,2.8c3.6,0,8.8-2.3,8.8-5.8c0-0.3-0.1-0.7-0.2-1.1
		l-15.6-50.8c-0.9-2.8-4.4-4.7-9-4.7s-8.1,1.8-9,4.7l-15.2,50.8c-0.1,0.4-0.2,0.7-0.2,1c0,3.6,5.2,5.8,8.8,5.8
		C125.2,112.3,126.3,110.8,126.6,109.5L126.6,109.5z M137.7,68.7l5.4,19.8h-10.8L137.7,68.7z"/>
	<path class="st2" d="M225.5,50.4c-4.8,0-7,0.6-10.5,6.8l-8.1,14.2l-8.1-14.2c-3.5-6.2-5.7-6.8-10.5-6.8c-3.4,0-7,1.8-7,7v50.4
		c0,3.1,3.6,4.5,7,4.5s7-1.4,7-4.5v-30l6.9,12.7c0.9,1.8,2.5,2.7,4.5,2.7c1.5,0,3.5-0.5,4.8-2.7l7-12v29.3c0,3.1,3.6,4.5,7,4.5
		s7-1.4,7-4.5V57.4C232.5,52.3,228.9,50.4,225.5,50.4z"/>
	<path class="st2" d="M291.3,100h-21.8V86.9h12c2.9,0,4.4-2.7,4.4-5.4c0-2.8-1.5-5.6-4.4-5.6h-12v-13h21.8c2.6,0,4.4-2.6,4.4-6.3
		c0-3-1.4-6.1-4.4-6.1h-29.6c-3,0-6.2,1.4-6.2,4.5v52.9c0,3.1,3.2,4.5,6.2,4.5h29.6c3.1,0,4.4-3.1,4.4-6.1
		C295.7,102.5,293.9,100,291.3,100L291.3,100z"/>
	<path class="st2" d="M79.7,134.5c-13.5,0-20.9,7.2-20.9,20.2v22.1c0,13,7.4,20.2,20.9,20.2s21-7.2,21-20.2v-22.1
		C100.7,141.7,93.2,134.5,79.7,134.5L79.7,134.5z M72.8,154.7c0-5.2,2.3-7.8,6.9-7.8c4.6,0,7,2.6,7,7.8v22.1c0,5.2-2.3,7.8-7,7.8
		c-4.6,0-6.9-2.6-6.9-7.8V154.7z"/>
	<path class="st2" d="M159.4,134.5c-3.3,0-4.4,1.5-4.7,2.8l-11.1,40.9l-11.2-40.9c-0.4-1.3-1.5-2.8-4.7-2.8c-3.6,0-8.8,2.3-8.8,5.8
		c0,0.3,0.1,0.7,0.2,1l15.6,50.8c0.9,2.8,4.4,4.7,9,4.7s8.1-1.8,9-4.7l15.5-50.8c0.1-0.4,0.2-0.7,0.2-1
		C168.2,136.8,163,134.5,159.4,134.5z"/>
	<path class="st2" d="M222.8,146.9c2.6,0,4.4-2.6,4.4-6.3c0-3-1.4-6.1-4.4-6.1h-29.6c-3,0-6.2,1.4-6.2,4.5v52.9
		c0,3.1,3.2,4.5,6.2,4.5h29.6c3.1,0,4.4-3.1,4.4-6.1c0-3.7-1.8-6.3-4.4-6.3H201v-13.1h12c2.9,0,4.4-2.7,4.4-5.4
		c0-2.8-1.5-5.6-4.4-5.6h-12v-13H222.8z"/>
	<path class="st2" d="M279.7,170c6.4-2.7,9.9-8.8,9.9-17.2c0-12.2-7.1-18.3-21-18.3h-17.2c-2.6,0-4.5,1.9-4.5,4.4v52.9
		c0,3.1,3.6,4.5,7,4.5c3.4,0,7-1.4,7-4.5v-19.5h4.7l11.3,21.9c0.9,1.7,2.5,2.7,4.6,2.7c4.1,0,8.7-3.8,8.7-7.3c0-0.4-0.1-1.1-0.5-1.7
		L279.7,170z M275.5,154.1c0,5.1-2.1,7.2-7,7.2h-7.7v-14.5h7.7C273.4,146.9,275.5,149,275.5,154.1z"/>
</g>
</svg>
