<svg id="Capa_1" enable-background="new 0 0 497 497" height="512" viewBox="0 0 497 497" width="512" xmlns="http://www.w3.org/2000/svg"><g><g><g><path d="m480.484 448h-463.968c-9.121 0-16.516-7.395-16.516-16.516v-365.968c0-9.121 7.395-16.516 16.516-16.516h463.968c9.121 0 16.516 7.395 16.516 16.516v365.967c0 9.122-7.395 16.517-16.516 16.517z" fill="#766d78"/></g></g><g><g><path d="m480.484 49h-30c9.121 0 16.516 7.395 16.516 16.516v365.967c0 9.122-7.395 16.516-16.516 16.516h30c9.122 0 16.516-7.395 16.516-16.516v-365.967c0-9.121-7.395-16.516-16.516-16.516z" fill="#655e67"/></g></g><g><g><path d="m385.195 365.435h-273.39c-15.09 0-27.323-12.233-27.323-27.323v-179.224c0-15.09 12.233-27.323 27.323-27.323h273.389c15.09 0 27.323 12.233 27.323 27.323v179.223c.001 15.091-12.232 27.324-27.322 27.324z" fill="#ad7fdd"/></g></g><g><g><path d="m385.195 131.565h-30c15.09 0 27.323 12.233 27.323 27.323v179.223c0 15.09-12.233 27.323-27.323 27.323h30c15.09 0 27.323-12.233 27.323-27.323v-179.223c0-15.09-12.233-27.323-27.323-27.323z" fill="#9d66d6"/></g></g><g fill="#f7f7f7"><path d="m151.819 237.261c13.14 0 20.376-6.949 20.376-19.568v-8.483c0-2.216-1.476-4.459-4.297-4.459h-13.574c-2.69 0-4.297 2.719-4.297 5.348 0 2.658 1.476 5.348 4.297 5.348h4.267v2.247c0 4.958-2.342 7.58-6.772 7.58-4.439 0-6.69-2.55-6.69-7.58v-21.411c0-5.029 2.278-7.58 6.771-7.58 6.502 0 6.616 4.084 6.691 6.786.054 1.954 1.278 4.283 6.802 4.283 4.2 0 6.802-1.084 6.802-6.479 0-10.071-8.157-16.578-20.78-16.578-12.641 0-19.891 7.132-19.891 19.568v21.411c.001 12.618 7.208 19.567 20.295 19.567z"/><path d="m202.148 234.064 2.647-9.731h16.283l2.648 9.737c.353 1.234 1.438 2.706 4.602 2.706 3.498 0 8.58-2.209 8.58-5.671 0-.306-.09-.664-.184-1.035l-15.109-49.289c-.87-2.765-4.292-4.552-8.718-4.552-4.427 0-7.849 1.787-8.719 4.556l-15.035 49.309c-.087.346-.177.704-.177 1.01 0 3.462 5.082 5.671 8.58 5.671 3.163.001 4.248-1.47 4.602-2.711zm10.748-39.676 5.244 19.251h-10.487z"/><path d="m298.13 176.715c-4.702 0-6.8.565-10.211 6.554l-7.888 13.785-7.887-13.784c-3.411-5.99-5.509-6.555-10.211-6.555-3.289 0-6.802 1.787-6.802 6.802v48.881c0 3.008 3.526 4.378 6.802 4.378s6.802-1.37 6.802-4.378v-29.147l6.732 12.331c.904 1.733 2.386 2.612 4.402 2.612 1.415 0 3.368-.449 4.632-2.589l6.826-11.661v28.454c0 3.008 3.526 4.378 6.802 4.378s6.802-1.37 6.802-4.378v-48.881c.001-5.015-3.513-6.802-6.801-6.802z"/><path d="m361.952 224.788h-21.153v-12.735h11.62c2.821 0 4.297-2.65 4.297-5.267 0-2.697-1.476-5.428-4.297-5.428h-11.62v-12.655h21.153c2.53 0 4.297-2.498 4.297-6.075 0-2.943-1.329-5.913-4.297-5.913h-28.763c-2.887 0-5.994 1.37-5.994 4.378v51.305c0 3.008 3.107 4.378 5.994 4.378h28.763c2.969 0 4.297-2.97 4.297-5.913.001-3.577-1.766-6.075-4.297-6.075z"/><path d="m156.585 258.315c-13.087 0-20.294 6.949-20.294 19.568v21.411c0 12.619 7.207 19.568 20.294 19.568 13.14 0 20.376-6.949 20.376-19.568v-21.411c0-12.619-7.236-19.568-20.376-19.568zm-6.69 19.568c0-5.03 2.251-7.58 6.69-7.58 4.494 0 6.772 2.55 6.772 7.58v21.411c0 5.03-2.278 7.58-6.772 7.58-4.439 0-6.69-2.55-6.69-7.58z"/><path d="m233.901 258.315c-3.164 0-4.249 1.471-4.603 2.712l-10.75 39.673-10.828-39.68c-.353-1.234-1.438-2.706-4.602-2.706-3.498 0-8.58 2.209-8.58 5.671 0 .306.09.664.177 1.01l15.116 49.314c.87 2.765 4.291 4.551 8.718 4.551s7.849-1.787 8.719-4.556l15.035-49.309c.087-.346.177-.704.177-1.01.001-3.461-5.081-5.67-8.579-5.67z"/><path d="m295.462 270.303c2.53 0 4.297-2.498 4.297-6.075 0-2.943-1.329-5.913-4.297-5.913h-28.763c-2.887 0-5.994 1.37-5.994 4.378v51.305c0 3.008 3.107 4.378 5.994 4.378h28.763c2.969 0 4.297-2.97 4.297-5.913 0-3.577-1.767-6.075-4.297-6.075h-21.153v-12.735h11.62c2.821 0 4.297-2.65 4.297-5.267 0-2.698-1.476-5.428-4.297-5.428h-11.62v-12.655z"/><path d="m350.704 292.758c6.175-2.628 9.566-8.517 9.566-16.653 0-11.805-6.855-17.79-20.375-17.79h-16.725c-2.496 0-4.378 1.847-4.378 4.297v51.386c0 3.008 3.526 4.378 6.802 4.378s6.802-1.37 6.802-4.378v-18.972h4.528l10.931 21.223c.882 1.684 2.474 2.611 4.482 2.611 4.012 0 8.418-3.687 8.418-7.044 0-.373-.064-1.094-.466-1.696zm-4.038-15.441c0 4.917-2.025 7.014-6.771 7.014h-7.499v-14.028h7.499c4.746 0 6.771 2.098 6.771 7.014z"/></g></g></svg>