<?xml version="1.0" encoding="utf-8"?>
<!-- Generator: Adobe Illustrator 24.3.0, SVG Export Plug-In . SVG Version: 6.00 Build 0)  -->
<svg version="1.1" id="Capa_1" xmlns="http://www.w3.org/2000/svg" xmlns:xlink="http://www.w3.org/1999/xlink" x="0px" y="0px"
	 viewBox="0 0 512 512" style="enable-background:new 0 0 512 512;" xml:space="preserve">
<style type="text/css">
	.st0{fill:#6B7C89;}
	.st1{fill:#5A6972;}
	.st2{fill:#3090C0;}
	.st3{fill:#287AA4;}
	.st4{fill:#F7F7F7;}
</style>
<g>
	<g>
		<path class="st0" d="M495,461.5H17c-9.4,0-17-7.6-17-17v-377c0-9.4,7.6-17,17-17h478c9.4,0,17,7.6,17,17v377
			C512,453.9,504.4,461.5,495,461.5L495,461.5z"/>
	</g>
</g>
<g>
	<g>
		<path class="st1" d="M495,50.5h-30.9c9.4,0,17,7.6,17,17v377c0,9.4-7.6,17-17,17H495c9.4,0,17-7.6,17-17v-377
			C512,58.1,504.4,50.5,495,50.5z"/>
	</g>
</g>
<g>
	<g>
		<path class="st2" d="M396.8,376.5H115.2c-15.5,0-28.1-12.6-28.1-28.1V163.7c0-15.5,12.6-28.1,28.1-28.1h281.6
			c15.5,0,28.1,12.6,28.1,28.1v184.6C425,363.9,412.4,376.5,396.8,376.5L396.8,376.5z"/>
	</g>
</g>
<g>
	<g>
		<path class="st3" d="M396.8,135.5h-30.9c15.5,0,28.1,12.6,28.1,28.1v184.6c0,15.5-12.6,28.1-28.1,28.1h30.9
			c15.5,0,28.1-12.6,28.1-28.1V163.7C425,148.1,412.4,135.5,396.8,135.5L396.8,135.5z"/>
	</g>
</g>
<g>
	<path class="st4" d="M156.4,244.4c13.5,0,21-7.2,21-20.2v-8.7c0-2.3-1.5-4.6-4.4-4.6h-14c-2.8,0-4.4,2.8-4.4,5.5
		c0,2.7,1.5,5.5,4.4,5.5h4.4v2.3c0,5.1-2.4,7.8-7,7.8c-4.6,0-6.9-2.6-6.9-7.8v-22.1c0-5.2,2.3-7.8,7-7.8c6.7,0,6.8,4.2,6.9,7
		c0.1,2,1.3,4.4,7,4.4c4.3,0,7-1.1,7-6.7c0-10.4-8.4-17.1-21.4-17.1c-13,0-20.5,7.3-20.5,20.2v22.1
		C135.5,237.3,142.9,244.4,156.4,244.4L156.4,244.4z"/>
	<path class="st4" d="M208.2,241.1l2.7-10h16.8l2.7,10c0.4,1.3,1.5,2.8,4.7,2.8c3.6,0,8.8-2.3,8.8-5.8c0-0.3-0.1-0.7-0.2-1.1
		l-15.6-50.8c-0.9-2.8-4.4-4.7-9-4.7c-4.6,0-8.1,1.8-9,4.7L194.9,237c-0.1,0.4-0.2,0.7-0.2,1c0,3.6,5.2,5.8,8.8,5.8
		C206.8,243.9,207.9,242.4,208.2,241.1L208.2,241.1z M219.3,200.3l5.4,19.8h-10.8L219.3,200.3z"/>
	<path class="st4" d="M307.1,182c-4.8,0-7,0.6-10.5,6.8l-8.1,14.2l-8.1-14.2c-3.5-6.2-5.7-6.8-10.5-6.8c-3.4,0-7,1.8-7,7v50.4
		c0,3.1,3.6,4.5,7,4.5s7-1.4,7-4.5v-30l6.9,12.7c0.9,1.8,2.5,2.7,4.5,2.7c1.5,0,3.5-0.5,4.8-2.7l7-12v29.3c0,3.1,3.6,4.5,7,4.5
		s7-1.4,7-4.5v-50.4C314.1,183.9,310.5,182,307.1,182z"/>
	<path class="st4" d="M372.9,231.6h-21.8v-13.1h12c2.9,0,4.4-2.7,4.4-5.4c0-2.8-1.5-5.6-4.4-5.6h-12v-13h21.8c2.6,0,4.4-2.6,4.4-6.3
		c0-3-1.4-6.1-4.4-6.1h-29.6c-3,0-6.2,1.4-6.2,4.5v52.9c0,3.1,3.2,4.5,6.2,4.5h29.6c3.1,0,4.4-3.1,4.4-6.1
		C377.3,234.1,375.5,231.6,372.9,231.6L372.9,231.6z"/>
	<path class="st4" d="M161.3,266.1c-13.5,0-20.9,7.2-20.9,20.2v22.1c0,13,7.4,20.2,20.9,20.2c13.5,0,21-7.2,21-20.2v-22.1
		C182.3,273.3,174.8,266.1,161.3,266.1L161.3,266.1z M154.4,286.3c0-5.2,2.3-7.8,6.9-7.8c4.6,0,7,2.6,7,7.8v22.1
		c0,5.2-2.3,7.8-7,7.8c-4.6,0-6.9-2.6-6.9-7.8V286.3z"/>
	<path class="st4" d="M241,266.1c-3.3,0-4.4,1.5-4.7,2.8l-11.1,40.9L214,268.9c-0.4-1.3-1.5-2.8-4.7-2.8c-3.6,0-8.8,2.3-8.8,5.8
		c0,0.3,0.1,0.7,0.2,1l15.6,50.8c0.9,2.8,4.4,4.7,9,4.7s8.1-1.8,9-4.7l15.5-50.8c0.1-0.4,0.2-0.7,0.2-1
		C249.8,268.4,244.6,266.1,241,266.1z"/>
	<path class="st4" d="M304.4,278.5c2.6,0,4.4-2.6,4.4-6.3c0-3-1.4-6.1-4.4-6.1h-29.6c-3,0-6.2,1.4-6.2,4.5v52.9
		c0,3.1,3.2,4.5,6.2,4.5h29.6c3.1,0,4.4-3.1,4.4-6.1c0-3.7-1.8-6.3-4.4-6.3h-21.8v-13.1h12c2.9,0,4.4-2.7,4.4-5.4
		c0-2.8-1.5-5.6-4.4-5.6h-12v-13L304.4,278.5z"/>
	<path class="st4" d="M361.3,301.6c6.4-2.7,9.9-8.8,9.9-17.2c0-12.2-7.1-18.3-21-18.3h-17.2c-2.6,0-4.5,1.9-4.5,4.4v52.9
		c0,3.1,3.6,4.5,7,4.5s7-1.4,7-4.5v-19.5h4.7l11.3,21.9c0.9,1.7,2.5,2.7,4.6,2.7c4.1,0,8.7-3.8,8.7-7.3c0-0.4-0.1-1.1-0.5-1.7
		L361.3,301.6z M357.1,285.7c0,5.1-2.1,7.2-7,7.2h-7.7v-14.5h7.7C355,278.5,357.1,280.6,357.1,285.7z"/>
</g>
</svg>
