<?xml version="1.0" encoding="utf-8"?>
<!-- Generator: Adobe Illustrator 24.3.0, SVG Export Plug-In . SVG Version: 6.00 Build 0)  -->
<svg version="1.1" id="Layer_1" xmlns="http://www.w3.org/2000/svg" xmlns:xlink="http://www.w3.org/1999/xlink" x="0px" y="0px"
	 viewBox="0 0 512 512" style="enable-background:new 0 0 512 512;" xml:space="preserve">
<style type="text/css">
	.st0{fill:#2A2E31;}
</style>
<g>
	<path class="st0" d="M496,448h-40V192c0-4.4-3.6-8-8-8H328V24c0-4.4-3.6-8-8-8H192c-4.4,0-8,3.6-8,8v96H64c-4.4,0-8,3.6-8,8v320H16
		c-4.4,0-8,3.6-8,8v32c0,4.4,3.6,8,8,8h480c4.4,0,8-3.6,8-8v-32C504,451.6,500.4,448,496,448z M328,200h112v248H328V200z M200,32
		h112v416H200V32z M72,136h112v312H72V136z M488,480H24v-16h464V480z"/>
	<path class="st0" d="M248,64v56c0,4.4,3.6,8,8,8s8-3.6,8-8V56c0-4.4-3.6-8-8-8h-8c-4.4,0-8,3.6-8,8S243.6,64,248,64z"/>
	<path class="st0" d="M368,280c-4.4,0-8,3.6-8,8s3.6,8,8,8h32c4.4,0,8-3.6,8-8v-64c0-4.4-3.6-8-8-8h-32c-4.4,0-8,3.6-8,8s3.6,8,8,8
		h24v16h-16c-4.4,0-8,3.6-8,8s3.6,8,8,8h16v16H368z"/>
	<path class="st0" d="M144,152h-32c-4.4,0-8,3.6-8,8s3.6,8,8,8h24v4.7l-29.7,29.7c-1.5,1.5-2.3,3.5-2.3,5.7v16c0,4.4,3.6,8,8,8h32
		c4.4,0,8-3.6,8-8s-3.6-8-8-8h-24v-4.7l29.7-29.7c1.5-1.5,2.3-3.5,2.3-5.7v-16C152,155.6,148.4,152,144,152z"/>
</g>
</svg>
