<?xml version="1.0" encoding="utf-8"?>
<!-- Generator: Adobe Illustrator 24.3.0, SVG Export Plug-In . SVG Version: 6.00 Build 0)  -->
<svg version="1.1"
	 id="svg16" inkscape:version="1.0 (4035a4fb49, 2020-05-01)" sodipodi:docname="f043093dce63459c1b638bd68d8fc51a.svg" xmlns:cc="http://creativecommons.org/ns#" xmlns:dc="http://purl.org/dc/elements/1.1/" xmlns:inkscape="http://www.inkscape.org/namespaces/inkscape" xmlns:rdf="http://www.w3.org/1999/02/22-rdf-syntax-ns#" xmlns:sodipodi="http://sodipodi.sourceforge.net/DTD/sodipodi-0.dtd" xmlns:svg="http://www.w3.org/2000/svg"
	 xmlns="http://www.w3.org/2000/svg" xmlns:xlink="http://www.w3.org/1999/xlink" x="0px" y="0px" viewBox="0 0 196 196"
	 style="enable-background:new 0 0 196 196;" xml:space="preserve">
<style type="text/css">
	.st0{fill:#2A2E31;}
</style>
<sodipodi:namedview  bordercolor="#666666" borderopacity="1" fit-margin-bottom="0" fit-margin-left="0" fit-margin-right="0" fit-margin-top="0" gridtolerance="10" guidetolerance="10" id="namedview18" inkscape:current-layer="svg16" inkscape:cx="74.901911" inkscape:cy="104.56765" inkscape:document-rotation="0" inkscape:pageopacity="0" inkscape:pageshadow="2" inkscape:window-height="1025" inkscape:window-maximized="1" inkscape:window-width="1920" inkscape:window-x="0" inkscape:window-y="28" inkscape:zoom="2.4267905" objecttolerance="10" pagecolor="#ffffff" showgrid="false">
	</sodipodi:namedview>
<path id="path4" class="st0" d="M93,12.4l-5.2,10.4l-11.4,1.7c-6.3,0.9-11.5,1.7-11.6,1.7c-0.1,0.1,3.6,3.8,8.2,8.4l8.4,8.3l-2,11.3
	c-1.1,6.2-1.9,11.3-1.8,11.4c0.1,0.1,4.8-2.2,10.4-5.1c5.6-2.9,10.3-5.3,10.5-5.2c0.2,0,4.8,2.5,10.2,5.3c5.4,2.8,9.9,5.1,10,4.9
	c0.1-0.1-0.6-5.3-1.7-11.4l-2-11.2l8.5-8.2c4.6-4.5,8.3-8.3,8.2-8.4c-0.1-0.1-5.4-0.9-11.6-1.8l-11.4-1.6l-5.1-10.5
	C100.8,6.7,98.5,2,98.4,2C98.3,2,95.9,6.7,93,12.4z M101.1,24.9c1.7,3.4,2.7,5,3.4,5.2c0.6,0.1,3.2,0.5,5.8,0.8
	c2.6,0.3,4.8,0.8,4.8,1c0,0.2-1.9,2.1-4.2,4.2l-4.1,3.9l1,5.5c0.5,3,0.9,5.6,0.7,5.8c-0.1,0.1-2.4-0.9-5.2-2.4l-5-2.6L93.2,49
	c-2.8,1.4-5.2,2.5-5.3,2.5c-0.1-0.1,0.3-2.7,0.8-5.8l1-5.6l-4.3-4.1c-2.4-2.3-4.2-4.2-4.1-4.2c0.1-0.1,2.3-0.4,4.8-0.7
	c7.3-1,6.7-0.5,9.4-6.3c1.3-2.8,2.5-5,2.8-4.9C98.6,19.9,99.8,22.2,101.1,24.9L101.1,24.9z"/>
<path id="path6" class="st0" d="M66.6,133.8v60.8H98h31.4v-60.8V73.1H98H66.6V133.8z M121.5,133.8v52.9H98H74.5v-52.9V80.9H98h23.5
	L121.5,133.8z"/>
<path id="path8" sodipodi:nodetypes="cccccccccccccccccc" class="st0" d="M2,161.1l0,33.5h31.4h31.4l0-33.5v-51H33.4H2L2,161.1z
	 M56.9,161.1l0,25.7H33.4H9.8l0-25.7V118h23.5h23.5V161.1z"/>
<path id="path10" sodipodi:nodetypes="cccccccccccccccccc" class="st0" d="M131.2,182.1l0.1,12.5h31.4H194l-0.1-12.5v-51h-31.4
	h-31.4V182.1z M186,182.1l0.1,4.7h-23.5h-23.5l-0.1-4.7V139h23.5H186V182.1z"/>
</svg>
