<?xml version="1.0" encoding="utf-8"?>
<!-- Generator: Adobe Illustrator 24.3.0, SVG Export Plug-In . SVG Version: 6.00 Build 0)  -->
<svg version="1.1" id="Capa_1" xmlns="http://www.w3.org/2000/svg" xmlns:xlink="http://www.w3.org/1999/xlink" x="0px" y="0px"
	 viewBox="0 0 20.7 20.7" style="enable-background:new 0 0 20.7 20.7;" xml:space="preserve">
<style type="text/css">
	.st0{fill:#2A2E31;}
</style>
<g>
	<g>
		<g>
			<path class="st0" d="M0.4,17c-0.2,0-0.4-0.2-0.4-0.4c0-7.3,8.6-8.8,10.6-9.1V4.2c0-0.2,0.1-0.3,0.2-0.4c0.1-0.1,0.3-0.1,0.5,0
				l9.2,6.2c0.1,0.1,0.2,0.2,0.2,0.4c0,0.1-0.1,0.3-0.2,0.4l-9.2,6.2c-0.1,0.1-0.3,0.1-0.5,0c-0.1-0.1-0.2-0.2-0.2-0.4V13
				C9.2,13,8,13,7,13.2c-4.8,0.6-6.1,3.4-6.1,3.6l0,0C0.8,16.9,0.6,17,0.4,17C0.4,17,0.4,17,0.4,17z"/>
		</g>
	</g>
</g>
</svg>
