<?xml version="1.0" encoding="utf-8"?>
<!-- Generator: Adobe Illustrator 24.3.0, SVG Export Plug-In . SVG Version: 6.00 Build 0)  -->
<svg version="1.1" id="Capa_1" xmlns="http://www.w3.org/2000/svg" xmlns:xlink="http://www.w3.org/1999/xlink" x="0px" y="0px"
	 viewBox="0 0 656.4 252.3" style="enable-background:new 0 0 656.4 252.3;" xml:space="preserve">
<style type="text/css">
	.st0{fill:#3090C0;}
	.st1{fill:#287AA4;}
	.st2{fill:#F7F7F7;}
</style>
<g>
	<path class="st0" d="M586,242.2H61.5c-10.3,0-18.7-4.3-18.7-9.6V20.2c0-5.3,8.3-9.6,18.7-9.6H586c10.3,0,18.7,4.3,18.7,9.6v212.4
		C604.7,237.9,596.3,242.2,586,242.2L586,242.2z"/>
</g>
<g>
	<path class="st1" d="M590.6,11.7h-19.3c5.9,0,10.7,4.3,10.7,9.6v212.4c0,5.3-4.8,9.6-10.7,9.6h19.3c5.9,0,10.7-4.3,10.7-9.6V21.3
		C601.3,16,596.5,11.7,590.6,11.7z"/>
</g>
<path class="st2" d="M369.1,144.3h-17.9v-11.2h9.8c2.4,0,3.6-2.3,3.6-4.6c0-2.4-1.2-4.8-3.6-4.8h-9.8v-11.1h17.9
	c2.1,0,3.6-2.2,3.6-5.4c0-2.6-1.1-5.2-3.6-5.2h-24.3c-2.5,0-5.1,1.2-5.1,3.8V151c0,2.6,2.6,3.8,5.1,3.8h24.3c2.5,0,3.6-2.6,3.6-5.2
	C372.7,146.4,371.2,144.3,369.1,144.3L369.1,144.3z"/>
<path class="st2" d="M149.1,132c5.4-2.3,8.3-7.4,8.3-14.4c0-10.2-5.9-15.3-17.6-15.3h-14.4c-2.2,0-3.8,1.6-3.8,3.7v44.2
	c0,2.6,3,3.8,5.9,3.8c2.8,0,5.9-1.2,5.9-3.8V134h3.9l9.4,18.3c0.8,1.4,2.1,2.3,3.8,2.3c3.4,0,7.3-3.2,7.3-6.1c0-0.3-0.1-0.9-0.4-1.4
	L149.1,132z M145.5,118.7c0,4.3-1.8,6-5.9,6h-6.4v-12.1h6.4C143.8,112.7,145.5,114.5,145.5,118.7z"/>
<path class="st2" d="M329.7,102.2c-4.2,0-6.1,0.5-9.1,5.9l-7,12.3l-7-12.3c-3-5.4-4.9-5.9-9.1-5.9c-2.9,0-6.1,1.6-6.1,6.1v43.6
	c0,2.7,3.1,3.9,6.1,3.9s6.1-1.2,6.1-3.9v-26l6,11c0.8,1.6,2.2,2.3,3.9,2.3c1.3,0,3-0.4,4.2-2.3l6.1-10.4v25.4c0,2.7,3.1,3.9,6.1,3.9
	s6.1-1.2,6.1-3.9v-43.6C335.7,103.9,332.6,102.2,329.7,102.2z"/>
<path class="st2" d="M274.8,106.6c-0.8-2.4-3.8-4-7.7-4c-3.9,0-6.9,1.6-7.7,4l-13.1,42.9c-0.1,0.3-0.2,0.6-0.2,0.9
	c0,3.1,4.5,5,7.5,5c2.8,0,3.8-1.3,4.1-2.4l2.3-8.4h14l2.3,8.4c0.3,1.1,1.3,2.4,4.1,2.4c3.1,0,7.5-2,7.5-5c0-0.3-0.1-0.6-0.2-0.9
	L274.8,106.6z M271.6,135.1h-8.9l4.5-16.4L271.6,135.1z"/>
<path class="st2" d="M238.1,102.2c-4.2,0-3-0.7-6,4.7l0,27L215,108.1c-3-5.4-4.9-5.9-9.1-5.9c-2.9,0-6.1,1.6-6.1,6.1v43.6
	c0,2.7,3.1,3.9,6.1,3.9c2.9,0,6.1-1.2,6.1-3.9v-26l7.5,9.2c2.1,2.4,12.7,13.2,12.9,16.1c0.2,2.8,3.6,4.4,5.7,4.6
	c2.9,0.4,6.1-1.2,6.1-3.9v-43.6C244.2,103.9,241,102.2,238.1,102.2z"/>
<path class="st2" d="M191.9,144.9H174v-11.2h9.8c2.4,0,3.6-2.3,3.6-4.6c0-2.4-1.2-4.8-3.6-4.8H174v-11.1h17.9c2.1,0,3.6-2.2,3.6-5.4
	c0-2.6-1.1-5.2-3.6-5.2h-24.3c-2.5,0-5.1,1.2-5.1,3.8v45.1c0,2.6,2.6,3.8,5.1,3.8h24.3c2.5,0,3.6-2.6,3.6-5.2
	C195.5,147,194.1,144.9,191.9,144.9L191.9,144.9z"/>
<path class="st2" d="M224.3,150.5"/>
<g>
	<path class="st2" d="M488,118.7c-1.9,0-3.5,1.6-3.5,3.5v28c0,1.9-1.6,3.5-3.5,3.5H432c-1.9,0-3.5-1.6-3.5-3.5v-48.9
		c0-1.9,1.6-3.5,3.5-3.5h28c1.9,0,3.5-1.6,3.5-3.5c0-1.9-1.6-3.5-3.5-3.5h-28c-5.8,0-10.5,4.7-10.5,10.5v48.9
		c0,5.8,4.7,10.5,10.5,10.5H481c5.8,0,10.5-4.7,10.5-10.5v-28C491.5,120.3,489.9,118.7,488,118.7z"/>
	<path class="st2" d="M454.3,115.6c-0.2,0.2-0.4,0.6-0.5,0.9l-2.5,12.4c-0.1,0.6,0.1,1.2,0.5,1.6c0.3,0.3,0.8,0.5,1.2,0.5
		c0.1,0,0.2,0,0.3,0l12.4-2.5c0.3-0.1,0.7-0.2,0.9-0.5l27.7-27.7L482,87.9L454.3,115.6z"/>
	<path class="st2" d="M502.9,79.4c-3.4-3.4-9-3.4-12.4,0l-4.8,4.8l12.4,12.4l4.8-4.8c1.6-1.6,2.6-3.8,2.6-6.2S504.5,81,502.9,79.4z"
		/>
</g>
</svg>
