<?xml version="1.0" encoding="utf-8"?>
<!-- Generator: Adobe Illustrator 24.3.0, SVG Export Plug-In . SVG Version: 6.00 Build 0)  -->
<svg version="1.1" id="Layer_1" xmlns="http://www.w3.org/2000/svg" xmlns:xlink="http://www.w3.org/1999/xlink" x="0px" y="0px"
	 viewBox="0 0 289.1 492" style="enable-background:new 0 0 289.1 492;" xml:space="preserve">
<style type="text/css">
	.st0{fill:#2A2E31;}
</style>
<g>
	<g>
		<path class="st0" d="M281.3,226.8L62.3,7.9C57.2,2.8,50.5,0,43.3,0s-14,2.8-19,7.9L8.1,24c-10.5,10.5-10.5,27.6,0,38.1L192,246
			L7.9,430C2.8,435.1,0,441.8,0,449s2.8,14,7.9,19L24,484.1c5.1,5.1,11.8,7.9,19,7.9s14-2.8,19-7.9L281.3,265
			c5.1-5.1,7.9-11.9,7.8-19.1C289.1,238.7,286.4,231.9,281.3,226.8z"/>
	</g>
</g>
</svg>
