<?xml version="1.0" encoding="utf-8"?>
<!-- Generator: Adobe Illustrator 24.3.0, SVG Export Plug-In . SVG Version: 6.00 Build 0)  -->
<svg version="1.1" id="Capa_1" xmlns="http://www.w3.org/2000/svg" xmlns:xlink="http://www.w3.org/1999/xlink" x="0px" y="0px"
	 viewBox="0 0 512 512" style="enable-background:new 0 0 512 512;" xml:space="preserve">
<style type="text/css">
	.st0{fill:#3090C0;}
	.st1{fill:#287AA4;}
	.st2{fill:#E3E0E4;}
	.st3{fill:#F7F7F7;}
</style>
<g>
	<g>
		<path class="st0" d="M495,461.5H17c-9.4,0-17-7.6-17-17v-377c0-9.4,7.6-17,17-17h478c9.4,0,17,7.6,17,17v377
			C512,453.9,504.4,461.5,495,461.5L495,461.5z"/>
	</g>
</g>
<g>
	<g>
		<path class="st1" d="M495,50.5h-30.9c9.4,0,17,7.6,17,17v377c0,9.4-7.6,17-17,17H495c9.4,0,17-7.6,17-17v-377
			C512,58.1,504.4,50.5,495,50.5z"/>
	</g>
</g>
<g>
	<g>
		<path class="st2" d="M430.1,363.2H81.9c-5.5,0-10-4.5-10-10v-34c0-5.5,4.5-10,10-10h348.1c5.5,0,10,4.5,10,10v34
			C440,358.8,435.6,363.2,430.1,363.2z"/>
	</g>
</g>
<g>
	<g>
		<path class="st1" d="M254.3,309.3H81.9c-5.5,0-10,4.5-10,10v34c0,5.5,4.5,10,10,10h172.4L254.3,309.3L254.3,309.3z"/>
	</g>
</g>
<g>
	<path class="st3" d="M149.9,123.4h-14.5c-2.6,0-4.6,1.6-4.6,3.8v44.7c0,2.7,3.1,3.9,6,3.9c2.9,0,6-1.2,6-3.9v-14.7h6.4
		c11.5,0,17.8-6,17.8-16.8V140C167,129.3,160.9,123.4,149.9,123.4z M149.2,147.7h-6.4v-13.8h6.4c3.9,0,5.8,2.2,5.8,6.5v0.8
		C155,145.6,153,147.7,149.2,147.7z"/>
	<path class="st3" d="M211.3,153.4c5.4-2.3,8.3-7.4,8.3-14.5c0-10.3-6-15.6-17.8-15.6h-14.5c-2.2,0-3.9,1.6-3.9,3.8v44.7
		c0,2.7,3.1,3.9,6,3.9c2.9,0,6-1.2,6-3.9v-16.4h3.8l9.5,18.4c0.8,1.5,2.2,2.3,4,2.3c3.6,0,7.4-3.2,7.4-6.2c0-0.3-0.1-1-0.4-1.5
		L211.3,153.4z M207.6,140c0,4.2-1.7,6-5.8,6h-6.4v-12h6.4C205.9,133.9,207.6,135.7,207.6,140z"/>
	<path class="st3" d="M267.4,133.9c2.2,0,3.8-2.2,3.8-5.4c0-2.5-1.2-5.2-3.8-5.2h-25c-2.6,0-5.3,1.2-5.3,3.9v44.6
		c0,2.7,2.7,3.9,5.3,3.9h25c2.6,0,3.8-2.7,3.8-5.2c0-3.2-1.6-5.4-3.8-5.4h-18.3v-10.9h10c2.5,0,3.8-2.3,3.8-4.7
		c0-2.4-1.3-4.8-3.8-4.8h-10v-10.8L267.4,133.9z"/>
	<path class="st3" d="M305.5,142.5c-4-1.7-7.1-3.1-7.1-5.5c0-1.8,1.7-3.7,6.5-3.7c3.3,0,5.1,0.9,6.6,1.7c1,0.5,1.9,1,3,1
		c3.4,0,4.9-4.1,4.9-6.3c0-6.4-12.1-6.7-14.5-6.7c-8.5,0-18.5,3.9-18.5,15.1c0,9.9,7.8,13.5,14.1,16.5c4.4,2,8.1,3.8,8.1,7
		c0,3-3.4,4.1-6.3,4.1c-3.6,0-5.8-1.7-7.7-3.1c-1.4-1.1-2.7-2.1-4.2-2.1c-3.1,0-5.3,3.8-5.3,6.4c0,5.1,8.2,9.7,17.5,9.7
		c11.2,0,18.1-6.2,18.1-16.1C320.7,149.1,311.9,145.3,305.5,142.5L305.5,142.5z"/>
	<path class="st3" d="M352.5,165.6c-3.6,0-5.8-1.7-7.7-3.1c-1.4-1.1-2.7-2.1-4.2-2.1c-3.1,0-5.3,3.8-5.3,6.4c0,5.1,8.2,9.7,17.5,9.7
		c11.2,0,18.1-6.2,18.1-16.1c0-11.2-8.8-15.1-15.2-17.9c-4-1.7-7.1-3.1-7.1-5.5c0-1.8,1.7-3.7,6.5-3.7c3.3,0,5.1,0.9,6.6,1.7
		c1,0.5,1.9,1,3,1c3.4,0,4.9-4.1,4.9-6.3c0-6.4-12.1-6.7-14.5-6.7c-8.5,0-18.5,3.9-18.5,15.1c0,9.9,7.8,13.5,14.1,16.5
		c4.4,2,8.1,3.8,8.1,7C358.8,164.5,355.4,165.6,352.5,165.6L352.5,165.6z"/>
	<path class="st3" d="M148.6,213.5c-4-1.7-7.1-3.1-7.1-5.5c0-1.8,1.7-3.7,6.5-3.7c3.3,0,5.1,0.9,6.6,1.7c1,0.5,1.9,1,3,1
		c3.4,0,4.9-4.1,4.9-6.3c0-6.4-12.1-6.7-14.5-6.7c-8.5,0-18.5,3.9-18.5,15.1c0,9.9,7.8,13.5,14.1,16.5c4.4,2,8.1,3.8,8.1,7
		c0,3-3.4,4.1-6.3,4.1c-3.6,0-5.8-1.7-7.7-3.1c-1.4-1.1-2.7-2.1-4.2-2.1c-3.1,0-5.3,3.8-5.3,6.4c0,5.1,8.2,9.7,17.5,9.7
		c11.2,0,18.1-6.2,18.1-16.1C163.8,220.1,155,216.3,148.6,213.5L148.6,213.5z"/>
	<path class="st3" d="M211.8,194.4h-30.4c-2.6,0-3.8,2.7-3.8,5.4c0,3.2,1.6,5.5,3.8,5.5h9.2v37.6c0,2.7,3.1,3.9,6,3.9
		c2.9,0,6-1.2,6-3.9v-37.6h9.2c2.2,0,3.8-2.3,3.8-5.5C215.6,197,214.4,194.4,211.8,194.4z"/>
	<path class="st3" d="M252.2,197.9c-0.8-2.4-3.8-4-7.7-4s-6.9,1.6-7.7,4l-13.1,42.9c-0.1,0.3-0.2,0.6-0.2,0.9c0,3.1,4.5,5,7.5,5
		c2.8,0,3.8-1.3,4.1-2.4l2.3-8.4h14l2.3,8.4c0.3,1.1,1.3,2.4,4.1,2.4c3.1,0,7.5-2,7.5-5c0-0.3-0.1-0.6-0.2-0.9L252.2,197.9z
		 M249,226.5h-8.9l4.5-16.4L249,226.5z"/>
	<path class="st3" d="M309.2,224.4c5.4-2.3,8.3-7.4,8.3-14.5c0-10.3-6-15.6-17.8-15.6h-14.5c-2.2,0-3.9,1.6-3.9,3.8v44.7
		c0,2.7,3.1,3.9,6,3.9c2.9,0,6-1.2,6-3.9v-16.4h3.8l9.5,18.4c0.8,1.5,2.2,2.3,4,2.3c3.6,0,7.4-3.2,7.4-6.2c0-0.3-0.1-1-0.4-1.5
		L309.2,224.4z M305.5,211c0,4.2-1.7,6-5.8,6h-6.4v-12h6.4C303.7,204.9,305.5,206.7,305.5,211z"/>
	<path class="st3" d="M365.3,194.4h-30.4c-2.6,0-3.8,2.7-3.8,5.4c0,3.2,1.6,5.5,3.8,5.5h9.2v37.6c0,2.7,3.1,3.9,6,3.9s6-1.2,6-3.9
		v-37.6h9.2c2.2,0,3.8-2.3,3.8-5.5C369.1,197,367.9,194.4,365.3,194.4L365.3,194.4z"/>
</g>
</svg>
