<?xml version="1.0" encoding="utf-8"?>
<!-- Generator: Adobe Illustrator 24.3.0, SVG Export Plug-In . SVG Version: 6.00 Build 0)  -->
<svg version="1.1"
	 id="svg3242" inkscape:version="1.0 (4035a4fb49, 2020-05-01)" sodipodi:docname="tree.svg" xmlns:cc="http://creativecommons.org/ns#" xmlns:dc="http://purl.org/dc/elements/1.1/" xmlns:inkscape="http://www.inkscape.org/namespaces/inkscape" xmlns:rdf="http://www.w3.org/1999/02/22-rdf-syntax-ns#" xmlns:sodipodi="http://sodipodi.sourceforge.net/DTD/sodipodi-0.dtd" xmlns:svg="http://www.w3.org/2000/svg"
	 xmlns="http://www.w3.org/2000/svg" xmlns:xlink="http://www.w3.org/1999/xlink" x="0px" y="0px" viewBox="0 0 100 58"
	 style="enable-background:new 0 0 100 58;" xml:space="preserve">
<style type="text/css">
	.st0{fill:#BB8D5D;}
	.st1{fill:#9E7758;}
	.st2{fill:#8BB54A;}
	.st3{fill:#EFF8FF;}
	.st4{fill:#B9E1FF;}
	.st5{fill:#D7EFFF;}
	.st6{opacity:5.100000e-02;enable-background:new    ;}
	.st7{fill:#008281;}
	.st8{fill:url(#path2976_2_);}
	.st9{fill:url(#path2976-7_1_);}
	.st10{fill:#00B6B5;}
	.st11{fill:#FFF4F4;}
	.st12{fill:#AED3D2;}
	.st13{fill:#E64C3C;}
	.st14{fill:#C03A2B;}
	.st15{fill:#D1D4D1;}
	.st16{fill:#ECF0F1;}
	.st17{fill:#FFFFFF;}
</style>
<g id="g2920" transform="matrix(0.26454738,0,0,0.26686026,110.57425,-0.2303104)">
	<g id="g2914" transform="translate(0.76334)">
		<path id="path546-3" class="st0" d="M-229.7,189.9v28.3l-189-94.5V95.4L-229.7,189.9z"/>
		<path id="path548-6" class="st1" d="M-229.7,218.2v-28.3l189-94.5v28.3L-229.7,218.2z"/>
	</g>
	<path id="path208" class="st2" d="M-418,95.4l189-94.5l189,94.5l-189,94.5L-418,95.4z"/>
</g>
<path class="st3" d="M0,25.2c1,3.9,2.6,5.3,3.8,5.8c2.1,0.9,3.5-0.6,5.7,0.4c2.4,1.1,1.7,3.4,4,4.9c2.9,1.8,5.5-0.9,8.4,1
	c1.9,1.3,1.2,2.8,3.2,4.1c2.6,1.6,4.4-0.3,7,1.3c2.1,1.3,1.6,3,3.8,4c1.8,0.8,2.3-0.1,4.4,0.6c2.4,0.8,2.5,2.3,4.6,3.1
	c1,0.4,2.6,0.7,5-0.1C33.3,42,16.7,33.6,0,25.2z"/>
<path class="st4" d="M100,25.2c-1,3.9-2.6,5.3-3.8,5.8c-2.1,0.9-3.5-0.6-5.7,0.4c-2.4,1.1-1.7,3.4-4,4.9c-2.9,1.8-5.5-0.9-8.4,1
	c-1.9,1.3-1.2,2.8-3.2,4.1c-2.6,1.6-4.4-0.3-7,1.3c-2.1,1.3-1.6,3-3.8,4c-1.8,0.8-2.3-0.1-4.4,0.6c-2.4,0.8-2.5,2.3-4.6,3.1
	c-1,0.4-2.6,0.7-5-0.1C66.6,42,83.3,33.6,100,25.2z"/>
<polygon class="st5" points="0,25.2 50,0 100,25.2 50,50.4 "/>
<sodipodi:namedview  bordercolor="#666666" borderopacity="1.0" fit-margin-bottom="0" fit-margin-left="0" fit-margin-right="0" fit-margin-top="0" id="base" inkscape:current-layer="layer1" inkscape:cx="38.418525" inkscape:cy="36.228356" inkscape:document-rotation="0" inkscape:document-units="mm" inkscape:pageopacity="0.0" inkscape:pageshadow="2" inkscape:window-height="1025" inkscape:window-maximized="1" inkscape:window-width="1920" inkscape:window-x="0" inkscape:window-y="28" inkscape:zoom="11.313709" pagecolor="#ffffff" showgrid="false" units="px">
	</sodipodi:namedview>
<path id="path2972" class="st6" d="M71.5,30.1c1-0.3,2.3-0.5,3.8-0.5s2.7,0.2,3.8,0.5c1,0.3,1.6,0.7,1.6,1.1s-0.5,0.8-1.6,1.2
	c-1,0.3-2.3,0.5-3.8,0.5s-2.7-0.2-3.8-0.5c-1-0.3-1.6-0.7-1.6-1.2S70.5,30.4,71.5,30.1z"/>
<path id="path2974" class="st0" d="M74.3,22.8c0.3-0.2,0.6-0.3,1-0.3s0.7,0.1,1,0.3c0.3,0.2,0.4,0.4,0.4,0.7v7.2l-0.4,0.5l-1,0.2
	c-0.4,0-0.7-0.1-1-0.2s-0.4-0.3-0.4-0.5v-7.2C73.9,23.2,74,23,74.3,22.8z"/>
<path id="path2976" class="st7" d="M81.3,26.9c-3.9,1-7.7,1-11.4,0.1c-0.7-0.2-1-0.5-0.9-0.9L74.9,15c0.4-0.3,0.9-0.3,1.3,0L82,26
	C82.1,26.5,81.9,26.7,81.3,26.9L81.3,26.9z"/>
<linearGradient id="path2976_2_" gradientUnits="userSpaceOnUse" x1="68.9812" y1="36.6708" x2="82.0246" y2="36.6708" gradientTransform="matrix(1 0 0 -1 0 57.8898)">
	<stop  offset="0.4804" style="stop-color:#00B6B5"/>
	<stop  offset="0.484" style="stop-color:#00A2A1"/>
	<stop  offset="0.4902" style="stop-color:#008281"/>
</linearGradient>
<path id="path2976_1_" class="st8" d="M81.3,26.9c-3.9,1-7.7,1-11.4,0.1c-0.7-0.2-1-0.5-0.9-0.9L74.9,15c0.4-0.3,0.9-0.3,1.3,0
	L82,26C82.1,26.5,81.9,26.7,81.3,26.9L81.3,26.9z"/>
<path id="path2972-3" class="st6" d="M46.9,34.4c1.1-0.5,2.4-0.8,3.9-0.8s2.8,0.3,3.9,0.8c1.1,0.5,1.6,1,1.6,1.8
	c0,0.7-0.5,1.3-1.6,1.8s-2.4,0.7-3.9,0.7S48,38.5,46.9,38c-1.1-0.5-1.6-1.1-1.6-1.8C45.3,35.5,45.8,34.9,46.9,34.4z"/>
<path id="path2974-6" class="st0" d="M49.7,23.1c0.3-0.3,0.6-0.5,1.1-0.5c0.4,0,0.8,0.2,1.1,0.5s0.5,0.7,0.5,1.1v11l-0.5,0.7
	l-1.1,0.3c-0.4,0-0.8-0.1-1.1-0.3s-0.5-0.4-0.5-0.7v-11C49.3,23.8,49.4,23.4,49.7,23.1z"/>
<linearGradient id="path2976-7_1_" gradientUnits="userSpaceOnUse" x1="44.2485" y1="16.7573" x2="57.7246" y2="16.7573">
	<stop  offset="0.4804" style="stop-color:#00B6B5"/>
	<stop  offset="0.484" style="stop-color:#00A2A1"/>
	<stop  offset="0.4902" style="stop-color:#008281"/>
</linearGradient>
<path id="path2976-7" class="st9" d="M57,29c-4,2.1-7.9,2.2-11.8,0.2c-0.7-0.4-1.1-1-0.9-1.8l6-24c0.4-0.7,0.9-0.7,1.4,0l6,23.9
	C57.8,28,57.6,28.6,57,29z"/>
<g>
	<path id="path2956" class="st6" d="M30.2,35.6c1.3-0.5,3-0.8,4.9-0.8s3.6,0.3,4.9,0.8c1.3,0.5,2,1,2,1.7s-0.7,1.3-2,1.8
		s-3,0.7-4.9,0.7s-3.6-0.2-4.9-0.7s-2-1.1-2-1.8C28.1,36.7,28.8,36.1,30.2,35.6z"/>
	<path id="path2962" class="st0" d="M34,24.3c0.3-0.3,0.6-0.5,1.1-0.5c0.4,0,0.8,0.2,1.1,0.5s0.5,0.7,0.5,1.1v11l-0.5,0.7l-1.1,0.3
		c-0.4,0-0.8-0.1-1.1-0.3s-0.5-0.4-0.5-0.7v-11C33.6,25,33.7,24.6,34,24.3z"/>
	<path class="st10" d="M44.4,30l-4.2-5.4c-0.2-0.2,0-0.5,0.2-0.5H42c0.3,0,0.5-0.4,0.3-0.6l-2.6-3.4h-0.3c-1.1,0-2,0.9-2,2v0.5
		c0,1.1-0.8,0.9-1.9,0.9c-1.1,0-1.1-0.3-1.1-1.4l-0.6-1.6c0-1.1-0.4-0.5-1.5-0.5L30,20.6l-2.2,2.9c-0.2,0.3,0,0.6,0.3,0.6h1.5
		c0.2,0,0.4,0.3,0.2,0.5L25.7,30c-0.2,0.3,0,0.7,0.3,0.7h18C44.4,30.7,44.6,30.3,44.4,30L44.4,30z"/>
	<path class="st7" d="M40.2,24.6c-0.2-0.2,0-0.5,0.2-0.5H42c0.3,0,0.5-0.4,0.3-0.6l-2.6-3.4h-0.3c-1.1,0-2.5,0.2-2.5,1.3v0.5
		c0,1.1-0.4,1.7-1.5,1.7c-0.1,0-0.2,0-0.3,0v7.1h9c0.4,0,0.5-0.4,0.3-0.7L40.2,24.6z"/>
	<path class="st11" d="M33.4,22.6c0,1.1,0.9,2,2,2s2-0.9,2-2v-0.5c0-1.1,0.9-2,2-2h0.3l-2.2-3c-0.1-0.2,0-0.4,0.2-0.4h2.4
		c0.3,0,0.5-0.4,0.3-0.6l-4.9-6.3c-0.2-0.3-0.7-0.3-0.9,0l-4.9,6.3c-0.2,0.3,0,0.6,0.3,0.6h2.4c0.2,0,0.3,0.2,0.2,0.4L30,20.6h1.3
		C32.5,20.6,33.4,21.5,33.4,22.6L33.4,22.6z"/>
</g>
<path class="st11" d="M72.5,19.5c0,0-0.1,0.5,1.6,0.6c1.6,0,1.4-0.7,2.1-0.6s1.4,0.9,2,0.6s0.3-0.8,0.3-0.8l-2.3-4.5l-1.5,0.7
	L72.5,19.5z"/>
<path class="st12" d="M75.3,27.6"/>
<g id="Page-1">
	<g id="_x30_32---Santa-Hat">
		<path id="Shape" class="st13" d="M77.2,16H77c-0.1-0.3-0.2-0.5-0.5-0.7l0,0c0,0.1,0,0.1,0,0.2c0,0.1,0,0.3,0,0.4L75.4,16l-1.2-0.1
			c0-0.2,0-2,1.2-2c0.3,0,1.1,0.1,1.6,0.6C77.4,15,77.2,15.9,77.2,16z"/>
		<path id="Shape_1_" class="st14" d="M76.6,15.5l-0.1-0.1c-0.2-0.2-0.5-0.4-0.7-0.5l0,0l0,0c0,0,0,0,0.1,0c0.3,0.1,0.5,0.3,0.8,0.5
			C76.5,15.3,76.6,15.4,76.6,15.5L76.6,15.5z"/>
		<path id="Rectangle-path" class="st15" d="M74.2,15.9h2.4c0.1,0,0.1,0.1,0.1,0.1v0.3c0,0.1-0.1,0.1-0.1,0.1h-2.4
			c-0.1,0-0.1-0.1-0.1-0.1V16C74.1,16,74.1,15.9,74.2,15.9z"/>
		<path id="Shape_2_" class="st16" d="M76.7,16v0.2c0,0.1-0.1,0.1-0.1,0.1h-2.4c-0.1,0-0.1-0.1-0.1-0.1V16c0-0.1,0.1-0.1,0.1-0.1
			h2.4L76.7,16z"/>
		<path id="Shape_3_" class="st15" d="M77.4,16.3c0,0.2-0.1,0.3-0.3,0.3s-0.3-0.1-0.4-0.3l0,0c0-0.2,0.2-0.3,0.3-0.3
			S77.4,16.1,77.4,16.3z"/>
		<path id="Shape_4_" class="st16" d="M77.3,16.1c0,0.1-0.1,0.3-0.2,0.3c-0.1,0.1-0.3,0-0.4-0.1l0,0c0-0.1,0.1-0.3,0.2-0.3
			S77.2,16,77.3,16.1L77.3,16.1z"/>
	</g>
</g>
<path class="st17" d="M50.1,3.6L46.3,19c-0.1,0.4,0.1,2.6,1.6,1.4c1.5-1.2,2.4-0.4,2.9,0.2c0.4,0.6,2.1,1.1,2.7-0.4s2.6,0,2.2-1.5
	c-0.4-1.5-3.8-15.2-3.8-15.2c-0.1-0.4-0.5-0.7-0.9-0.7l0,0C50.6,2.9,50.2,3.2,50.1,3.6z"/>
</svg>
