<?xml version="1.0" encoding="utf-8"?>
<!-- Generator: Adobe Illustrator 24.3.0, SVG Export Plug-In . SVG Version: 6.00 Build 0)  -->
<svg version="1.1" id="Capa_1" xmlns="http://www.w3.org/2000/svg" xmlns:xlink="http://www.w3.org/1999/xlink" x="0px" y="0px"
	 viewBox="0 0 26.7 26.7" style="enable-background:new 0 0 26.7 26.7;" xml:space="preserve">
<style type="text/css">
	.st0{fill:#2A2E31;}
</style>
<g>
	<path class="st0" d="M26.1,21.9c-0.2,0-0.4-0.1-0.5-0.3l0,0c-0.1-0.2-1.7-3.9-7.9-4.6c-1.3-0.2-2.8-0.2-4.7-0.2v4.6
		c0,0.2-0.1,0.4-0.3,0.5c-0.2,0.1-0.4,0.1-0.6,0l-11.9-8C0.1,13.7,0,13.5,0,13.3c0-0.2,0.1-0.4,0.3-0.5l11.9-8
		c0.2-0.1,0.4-0.1,0.6,0C12.9,5,13,5.1,13,5.4v4.3C15.6,10,26.7,12,26.7,21.3c0,0.3-0.2,0.5-0.5,0.6C26.2,21.9,26.1,21.9,26.1,21.9z
		"/>
</g>
</svg>
