<?xml version="1.0" encoding="utf-8"?>
<!-- Generator: Adobe Illustrator 24.3.0, SVG Export Plug-In . SVG Version: 6.00 Build 0)  -->
<svg version="1.1"
	 id="svg3089" inkscape:version="1.0 (4035a4fb49, 2020-05-01)" sodipodi:docname="water.svg" xmlns:cc="http://creativecommons.org/ns#" xmlns:dc="http://purl.org/dc/elements/1.1/" xmlns:inkscape="http://www.inkscape.org/namespaces/inkscape" xmlns:rdf="http://www.w3.org/1999/02/22-rdf-syntax-ns#" xmlns:sodipodi="http://sodipodi.sourceforge.net/DTD/sodipodi-0.dtd" xmlns:svg="http://www.w3.org/2000/svg"
	 xmlns="http://www.w3.org/2000/svg" xmlns:xlink="http://www.w3.org/1999/xlink" x="0px" y="0px" viewBox="0 0 100 58"
	 style="enable-background:new 0 0 100 58;" xml:space="preserve">
<style type="text/css">
	.st0{fill:#9CD5E2;}
	.st1{fill:#D7EEF3;}
	.st2{fill:#EBF7F9;}
	.st3{fill:#2C2F38;}
	.st4{fill:#D1D4D1;}
	.st5{fill:#5E5F62;}
	.st6{fill:#F29C1F;}
	.st7{fill:#F0C419;}
	.st8{fill:#FFFFFF;}
</style>
<g id="layer1" transform="translate(-94.116072,-26.411087)" inkscape:groupmode="layer" inkscape:label="Calque 1">
	<g id="g2925" transform="matrix(0.26446859,0,0,0.26692382,50.406121,-46.896099)">
		<path id="path546" class="st0" d="M354.3,463.6V492l-189-94.5v-28.3L354.3,463.6z"/>
		<path id="path548" class="st0" d="M354.3,492v-28.3l189-94.5v28.3L354.3,492z"/>
		<path id="path550" class="st0" d="M543.3,369.1l-189,94.5l-189-94.5l189-94.5L543.3,369.1z"/>
	</g>
</g>
<polygon class="st0" points="0,25.2 50,0 100,25.2 50,50.4 "/>
<g>
	<path class="st1" d="M26.4,31.5l13.7-7.2c0.3-0.2,0.7-0.2,1,0l13.7,7.2c0.8,0.4,0.8,1.6,0,2l-13.7,7.2c-0.3,0.2-0.7,0.2-1,0
		l-13.7-7.2C25.6,33.1,25.6,31.9,26.4,31.5z"/>
	<path class="st2" d="M26.7,29.8l13.6-7.1c0.3-0.2,0.8-0.2,1.1,0l13.6,7.1c0.9,0.4,0.9,1.7,0,2.1L41.4,39c-0.3,0.2-0.8,0.2-1.1,0
		l-13.6-7.1C25.8,31.5,25.8,30.2,26.7,29.8z"/>
</g>
<sodipodi:namedview  bordercolor="#666666" borderopacity="1.0" fit-margin-bottom="0" fit-margin-left="0" fit-margin-right="0" fit-margin-top="0" id="base" inkscape:current-layer="layer1" inkscape:cx="36.769359" inkscape:cy="43.388969" inkscape:document-rotation="0" inkscape:document-units="mm" inkscape:pageopacity="0.0" inkscape:pageshadow="2" inkscape:window-height="1025" inkscape:window-maximized="1" inkscape:window-width="1920" inkscape:window-x="0" inkscape:window-y="28" inkscape:zoom="8" pagecolor="#ffffff" showgrid="false" units="px">
	</sodipodi:namedview>
<g>
	<path class="st3" d="M36,31.2l0.1,0.3l0,0.1c0,0.1,0.1,0.2,0.3,0.2h1.3c0-0.2-0.3-0.4-0.5-0.4h0c-0.2-0.1-0.4-0.1-0.6-0.1H36z"/>
	<path class="st3" d="M36.1,31.5c-0.9,0-1.7,0-2.2,0c0,0-0.1,0-0.1-0.1c0,0,0-0.1,0-0.1c1.1-0.4,1.4-1.6,1.4-2.8
		c0-1.1-0.2-2.4-0.1-3.2c0.1-1.9,0.7-2,1.5-2c0.4,0,0.8,0.3,1,0.7c0,0,0,0,0,0c0,0,0,0,0,0c0.2,0,0.5,0.1,0.7,0.1
		c0.7,0.1,0.6,0.4,0.6,0.4c-0.2,0-0.4,0-0.5,0c-0.3,0-0.8-0.1-1,0.2c-0.2,0.3,0,0.5,0.2,0.7c0.5,0.4,0.9,1,1.1,1.6
		c0.2,0.4,0.2,0.9,0.3,1.4c0,0.4,0,0.8-0.1,1.1c-0.2,0.7-0.6,1.2-1.2,1.5c-0.1,0.1-0.3,0.1-0.4,0.2h0L36.1,31.5z"/>
	<path class="st4" d="M38.9,29.7c-0.2,0.7-0.6,1.2-1.2,1.5c-0.1,0.1-0.3,0.1-0.4,0.2h0c-0.2-0.1-0.4-0.1-0.6-0.1
		c0,0-0.6-0.9,0.1-1.2c0.5-0.2,0.5-1,0.5-1.5c0-0.1,0-0.2,0-0.3c0.1-1.1-0.4-2.2-0.4-2.2c-0.4-1.2,0.5-1.3,0.7-1.3c0,0,0,0,0,0.1
		c-0.2,0.3,0,0.5,0.2,0.7c0.5,0.4,0.9,1,1.1,1.6c0.2,0.4,0.2,0.9,0.3,1.4C39,28.9,39,29.3,38.9,29.7z"/>
	<path class="st5" d="M36.6,29.7C36.6,29.7,36.5,29.7,36.6,29.7c-0.6-0.1-0.7-2.1-0.8-3c0-0.1,0.1-0.1,0.1-0.2
		c0.1,0,0.1,0.1,0.2,0.1c0.1,1.4,0.3,2.6,0.5,2.7c0,0,0,0,0.1-0.2c0.7-1.1-0.1-3.1-0.2-3.1c0-0.1,0-0.2,0.1-0.2c0.1,0,0.2,0,0.2,0.1
		c0,0.1,0.9,2.1,0.1,3.3C36.8,29.6,36.7,29.7,36.6,29.7z"/>
	<path class="st6" d="M38.9,24.6c-0.2,0-0.4,0-0.5,0c-0.2,0-0.5,0-0.7,0c0-0.2,0-0.4,0-0.6c0,0,0,0,0,0c0.2,0,0.5,0.1,0.7,0.1
		C39,24.3,38.9,24.6,38.9,24.6z"/>
	<path class="st6" d="M38.9,24.6c-0.2,0-0.4,0-0.5,0c-0.2,0-0.5,0-0.7,0c0-0.2,0-0.4,0-0.6c0,0,0,0,0,0c0.2,0,0.5,0.1,0.7,0.1
		C39,24.3,38.9,24.6,38.9,24.6z"/>
	<path class="st7" d="M35.1,25.2c0-0.3,0.1-0.6,0.2-0.9c0.1-0.1,0.7-0.4,0.9,0.3C36.3,25.3,35.7,25.6,35.1,25.2z"/>
	<path class="st8" d="M36.8,24c0,0.2-0.1,0.3-0.3,0.3s-0.3-0.1-0.3-0.3c0-0.2,0.1-0.3,0.3-0.3S36.8,23.9,36.8,24z"/>
	<path class="st3" d="M36.7,24c0,0.1-0.1,0.1-0.1,0.1s-0.1-0.1-0.1-0.1c0-0.1,0.1-0.1,0.1-0.1S36.7,24,36.7,24z"/>
	<path class="st8" d="M36.6,23.9c0,0.1,0,0.1-0.1,0.1c-0.1,0-0.1,0-0.2-0.1c0-0.1,0.1-0.2,0.2-0.2C36.5,23.8,36.6,23.8,36.6,23.9z"
		/>
</g>
<g>
	<path class="st1" d="M41,11.1l10.3-5.4c0.2-0.1,0.5-0.1,0.8,0l10.3,5.4c0.6,0.3,0.6,1.2,0,1.5L52.1,18c-0.2,0.1-0.5,0.1-0.8,0
		L41,12.6C40.4,12.3,40.4,11.4,41,11.1z"/>
	<path class="st2" d="M41.2,9.8l10.2-5.3c0.3-0.1,0.6-0.1,0.8,0l10.2,5.3c0.6,0.3,0.6,1.3,0,1.6l-10.2,5.3c-0.3,0.1-0.6,0.1-0.8,0
		l-10.2-5.3C40.5,11.1,40.5,10.1,41.2,9.8z"/>
</g>
<g>
	<path class="st1" d="M63.2,29.2l8.4-4.4c0.2-0.1,0.4-0.1,0.6,0l8.4,4.4c0.5,0.3,0.5,1,0,1.2l-8.4,4.4c-0.2,0.1-0.4,0.1-0.6,0
		l-8.4-4.4C62.7,30.1,62.7,29.4,63.2,29.2z"/>
	<path class="st2" d="M63.3,28.1l8.3-4.3c0.2-0.1,0.5-0.1,0.7,0l8.3,4.3c0.5,0.3,0.5,1,0,1.3l-8.3,4.3c-0.2,0.1-0.5,0.1-0.7,0
		l-8.3-4.3C62.8,29.1,62.8,28.4,63.3,28.1z"/>
</g>
</svg>
